<svg id="Camada_1" data-name="Camada 1" xmlns="http://www.w3.org/2000/svg" viewBox="0 0 1920 1080"><defs><style>.cls-1{fill:#fff;}</style></defs><g id="Camada_13" data-name="Camada 13"><rect width="1920" height="1079.06"/></g><g id="Camada_12" data-name="Camada 12"><rect width="1920" height="1079.06"/><text/></g><g id="Camada_11" data-name="Camada 11"><rect width="1920" height="1079.06"/><text/></g><g id="Camada_10" data-name="Camada 10"><rect width="1920" height="1079.06"/><text/></g><g id="Camada_9" data-name="Camada 9"><rect width="1920" height="1079.06"/><text/><path class="cls-1" d="M180.49,469.73c0-37.23,23.88-62.8,58.46-62.8,30.29,0,52.52,17.84,54.83,44.95H266c-2.47-11.32-11-20.24-27-20.24-20.75,0-31,14.75-31,38.09s11.2,38.08,31.95,38.08c15.47,0,25.85-8.92,26.18-20.24H233.84V466.29h60.1c3.46,40.67-17.45,66.23-55.32,66.23C202.23,532.52,180.49,507,180.49,469.73Z"/><path class="cls-1" d="M310.91,485.85V409.68h26.34v73.09c0,16.12,6.59,26.76,22.89,26.76s23.05-10.64,23.05-26.76V409.68h26.18v76.17c0,33.63-22.06,46.67-49.23,46.67C333.14,532.52,310.91,519.48,310.91,485.85Z"/><path class="cls-1" d="M425.35,492h28.48c.33,10.29,6.42,19,18.11,19,10.54,0,17.95-4.63,17.95-13.72,0-23.33-60.1-7-60.1-54.39,0-22.82,18.11-36,46.44-36,28,0,44.29,14.07,44.29,40.15H492.86c-.33-10.3-6.26-18.87-17.62-18.87-10.21,0-17.79,5-17.79,13.55,0,23.51,61.09,6.86,61.09,54.39,0,23-18.11,36.37-47.25,36.37C442.47,532.52,425.35,518.28,425.35,492Z"/><path class="cls-1" d="M561.68,432H523.81v-22.3H625.9V432H588v97.8H561.68Z"/><path class="cls-1" d="M665.58,409.68H697.2l45.28,120.1H714.32l-9.71-27.28H658l-9.71,27.28h-28Zm32.28,71.88-16-46.66h-1l-16,46.66Z"/><path class="cls-1" d="M728.65,409.68h28.16l32.44,93.16h1.15l32.44-93.16H851l-45.29,120.1H773.94Z"/><path class="cls-1" d="M851.82,469.73c0-37.23,23.71-62.8,58.78-62.8s58.79,25.57,58.79,62.8-23.72,62.79-58.79,62.79S851.82,507,851.82,469.73Zm58.78,38.08c20.91,0,30.79-14.75,30.79-38.08s-9.88-38.09-30.79-38.09-31,14.75-31,38.09S889.69,507.81,910.6,507.81Z"/><path class="cls-1" d="M1019.77,409.68H1074c25.68,0,40.67,14.58,40.67,35.51A27.55,27.55,0,0,1,1087,473.33v1c16.13,1.54,23,10.64,24.53,26.08,1.65,16.47,2.63,24.53,4.44,29.34h-27c-1.32-3.26-3-10-4.28-25.4-1-12-5.43-15.61-16.8-15.61H1046v41h-26.19ZM1067.69,468c10.54,0,20.42-5.83,20.42-19.39,0-12.35-9.88-17.33-20.42-17.33H1046V468Z"/><path class="cls-1" d="M1135,409.68h86.12V432h-59.94v25.91h52.53v21.62h-52.53v28H1223v22.31H1135Z"/><path class="cls-1" d="M1241.9,409.68h26.35v120.1H1241.9Z"/><path class="cls-1" d="M1290,409.68h26.68l49.72,79.95-.65-79.95h25.85v120.1H1364.9l-49.72-78.41.65,78.41H1290Z"/><path class="cls-1" d="M1413.32,409.68h86.11V432H1439.5v25.91H1492v21.62H1439.5v28h61.74v22.31h-87.92Z"/><path class="cls-1" d="M1520.18,409.68h26.18v49.07h49.07V409.68h26.18v120.1h-26.18V480.71h-49.07v49.07h-26.18Z"/><path class="cls-1" d="M1643.35,409.68h54.17c25.69,0,40.67,14.58,40.67,35.51a27.55,27.55,0,0,1-27.66,28.14v1c16.13,1.54,23,10.64,24.53,26.08,1.65,16.47,2.63,24.53,4.45,29.34h-27c-1.32-3.26-3-10-4.28-25.4-1-12-5.43-15.61-16.79-15.61h-21.9v41h-26.18ZM1691.26,468c10.54,0,20.42-5.83,20.42-19.39,0-12.35-9.88-17.33-20.42-17.33h-21.73V468Z"/><path class="cls-1" d="M616.49,628.05c0-26.69,17.12-45,41.91-45,21.72,0,37.54,13.53,39.31,35.18h-20c-1.89-10.33-7.91-17.47-19.36-17.47-14.88,0-22.2,10.58-22.2,27.31s7.32,27.31,22.2,27.31c11.45,0,17.47-7.14,19.36-17.47h20c-1.77,21.65-17.59,35.18-39.31,35.18C633.61,673.07,616.49,654.74,616.49,628.05Z"/><path class="cls-1" d="M707.27,628.05c0-26.69,17-45,42.14-45s42.15,18.33,42.15,45-17,45-42.15,45S707.27,654.74,707.27,628.05Zm42.14,27.31c15,0,22.08-10.58,22.08-27.31s-7.08-27.31-22.08-27.31-22.19,10.58-22.19,27.31S734.42,655.36,749.41,655.36Z"/><path class="cls-1" d="M804.07,585h19.12l35.66,57.32L858.38,585h18.53v86.1H857.78l-35.65-56.21.47,56.21H804.07Z"/><path class="cls-1" d="M914.21,601H887.06V585h73.19v16H933.1V671.1H914.21Z"/><path class="cls-1" d="M970.4,585h61.74v16h-43v18.57h37.66v15.5H989.17v20.05h44.27v16h-63Z"/><path class="cls-1" d="M1047,585h19.13l35.65,57.32-.47-57.32h18.53v86.1h-19.12l-35.66-56.21.48,56.21H1047Z"/><path class="cls-1" d="M1157.15,601H1130V585h73.2v16H1176V671.1h-18.89Z"/><path class="cls-1" d="M1237,585h61.75v16h-43v18.57h37.66v15.5h-37.66v20.05H1300v16h-63Z"/><path class="cls-1" d="M1313.56,585h33.89c26,0,41.08,17,41.08,43,0,31.86-21.6,43.05-41.08,43.05h-33.89Zm30.58,70.6c13.11,0,25.15-6.64,25.15-27.43s-12-27.67-25.15-27.67h-11.8v55.1Z"/><path class="cls-1" d="M1401.16,585h18.89v86.1h-18.89Z"/><path class="cls-1" d="M1457.35,601H1430.2V585h73.19v16h-27.15V671.1h-18.89Z"/><path class="cls-1" d="M1509.29,628.05c0-26.69,17-45,42.15-45s42.14,18.33,42.14,45-17,45-42.14,45S1509.29,654.74,1509.29,628.05Zm42.15,27.31c15,0,22.07-10.58,22.07-27.31s-7.08-27.31-22.07-27.31-22.2,10.58-22.2,27.31S1536.44,655.36,1551.44,655.36Z"/><path class="cls-1" d="M1606.09,585h38.84c18.42,0,29.16,10.46,29.16,25.46a19.75,19.75,0,0,1-19.83,20.17v.74c11.56,1.11,16.52,7.63,17.59,18.7,1.18,11.81,1.89,17.59,3.18,21h-19.36c-.94-2.34-2.12-7.13-3.07-18.2-.71-8.61-3.89-11.2-12-11.2h-15.7v29.4h-18.77Zm34.35,41.82c7.56,0,14.64-4.18,14.64-13.9,0-8.86-7.08-12.42-14.64-12.42h-15.58v26.32Z"/></g><g id="Camada_8" data-name="Camada 8"><rect width="1920" height="1079.06"/><text/><path class="cls-1" d="M180.49,469.73c0-37.23,23.88-62.8,58.46-62.8,30.29,0,52.52,17.84,54.83,44.95H266c-2.47-11.32-11-20.24-27-20.24-20.75,0-31,14.75-31,38.09s11.2,38.08,31.95,38.08c15.47,0,25.85-8.92,26.18-20.24H233.84V466.29h60.1c3.46,40.67-17.45,66.23-55.32,66.23C202.23,532.52,180.49,507,180.49,469.73Z"/><path class="cls-1" d="M310.91,485.85V409.68h26.34v73.09c0,16.12,6.59,26.76,22.89,26.76s23.05-10.64,23.05-26.76V409.68h26.18v76.17c0,33.63-22.06,46.67-49.23,46.67C333.14,532.52,310.91,519.48,310.91,485.85Z"/><path class="cls-1" d="M425.35,492h28.48c.33,10.29,6.42,19,18.11,19,10.54,0,17.95-4.63,17.95-13.72,0-23.33-60.1-7-60.1-54.39,0-22.82,18.11-36,46.44-36,28,0,44.29,14.07,44.29,40.15H492.86c-.33-10.3-6.26-18.87-17.62-18.87-10.21,0-17.79,5-17.79,13.55,0,23.51,61.09,6.86,61.09,54.39,0,23-18.11,36.37-47.25,36.37C442.47,532.52,425.35,518.28,425.35,492Z"/><path class="cls-1" d="M561.68,432H523.81v-22.3H625.9V432H588v97.8H561.68Z"/><path class="cls-1" d="M665.58,409.68H697.2l45.28,120.1H714.32l-9.71-27.28H658l-9.71,27.28h-28Zm32.28,71.88-16-46.66h-1l-16,46.66Z"/><path class="cls-1" d="M728.65,409.68h28.16l32.44,93.16h1.15l32.44-93.16H851l-45.29,120.1H773.94Z"/><path class="cls-1" d="M851.82,469.73c0-37.23,23.71-62.8,58.78-62.8s58.79,25.57,58.79,62.8-23.72,62.79-58.79,62.79S851.82,507,851.82,469.73Zm58.78,38.08c20.91,0,30.79-14.75,30.79-38.08s-9.88-38.09-30.79-38.09-31,14.75-31,38.09S889.69,507.81,910.6,507.81Z"/><path class="cls-1" d="M1019.77,409.68H1074c25.68,0,40.67,14.58,40.67,35.51A27.55,27.55,0,0,1,1087,473.33v1c16.13,1.54,23,10.64,24.53,26.08,1.65,16.47,2.63,24.53,4.44,29.34h-27c-1.32-3.26-3-10-4.28-25.4-1-12-5.43-15.61-16.8-15.61H1046v41h-26.19ZM1067.69,468c10.54,0,20.42-5.83,20.42-19.39,0-12.35-9.88-17.33-20.42-17.33H1046V468Z"/><path class="cls-1" d="M1135,409.68h86.12V432h-59.94v25.91h52.53v21.62h-52.53v28H1223v22.31H1135Z"/><path class="cls-1" d="M1241.9,409.68h26.35v120.1H1241.9Z"/><path class="cls-1" d="M1290,409.68h26.68l49.72,79.95-.65-79.95h25.85v120.1H1364.9l-49.72-78.41.65,78.41H1290Z"/><path class="cls-1" d="M1413.32,409.68h86.11V432H1439.5v25.91H1492v21.62H1439.5v28h61.74v22.31h-87.92Z"/><path class="cls-1" d="M1520.18,409.68h26.18v49.07h49.07V409.68h26.18v120.1h-26.18V480.71h-49.07v49.07h-26.18Z"/><path class="cls-1" d="M1643.35,409.68h54.17c25.69,0,40.67,14.58,40.67,35.51a27.55,27.55,0,0,1-27.66,28.14v1c16.13,1.54,23,10.64,24.53,26.08,1.65,16.47,2.63,24.53,4.45,29.34h-27c-1.32-3.26-3-10-4.28-25.4-1-12-5.43-15.61-16.79-15.61h-21.9v41h-26.18ZM1691.26,468c10.54,0,20.42-5.83,20.42-19.39,0-12.35-9.88-17.33-20.42-17.33h-21.73V468Z"/><path class="cls-1" d="M616.49,628.05c0-26.69,17.12-45,41.91-45,21.72,0,37.54,13.53,39.31,35.18h-20c-1.89-10.33-7.91-17.47-19.36-17.47-14.88,0-22.2,10.58-22.2,27.31s7.32,27.31,22.2,27.31c11.45,0,17.47-7.14,19.36-17.47h20c-1.77,21.65-17.59,35.18-39.31,35.18C633.61,673.07,616.49,654.74,616.49,628.05Z"/><path class="cls-1" d="M707.27,628.05c0-26.69,17-45,42.14-45s42.15,18.33,42.15,45-17,45-42.15,45S707.27,654.74,707.27,628.05Zm42.14,27.31c15,0,22.08-10.58,22.08-27.31s-7.08-27.31-22.08-27.31-22.19,10.58-22.19,27.31S734.42,655.36,749.41,655.36Z"/><path class="cls-1" d="M804.07,585h19.12l35.66,57.32L858.38,585h18.53v86.1H857.78l-35.65-56.21.47,56.21H804.07Z"/><path class="cls-1" d="M914.21,601H887.06V585h73.19v16H933.1V671.1H914.21Z"/><path class="cls-1" d="M970.4,585h61.74v16h-43v18.57h37.66v15.5H989.17v20.05h44.27v16h-63Z"/><path class="cls-1" d="M1047,585h19.13l35.65,57.32-.47-57.32h18.53v86.1h-19.12l-35.66-56.21.48,56.21H1047Z"/><path class="cls-1" d="M1157.15,601H1130V585h73.2v16H1176V671.1h-18.89Z"/><path class="cls-1" d="M1237,585h61.75v16h-43v18.57h37.66v15.5h-37.66v20.05H1300v16h-63Z"/><path class="cls-1" d="M1313.56,585h33.89c26,0,41.08,17,41.08,43,0,31.86-21.6,43.05-41.08,43.05h-33.89Zm30.58,70.6c13.11,0,25.15-6.64,25.15-27.43s-12-27.67-25.15-27.67h-11.8v55.1Z"/><path class="cls-1" d="M1401.16,585h18.89v86.1h-18.89Z"/><path class="cls-1" d="M1457.35,601H1430.2V585h73.19v16h-27.15V671.1h-18.89Z"/><path class="cls-1" d="M1509.29,628.05c0-26.69,17-45,42.15-45s42.14,18.33,42.14,45-17,45-42.14,45S1509.29,654.74,1509.29,628.05Zm42.15,27.31c15,0,22.07-10.58,22.07-27.31s-7.08-27.31-22.07-27.31-22.2,10.58-22.2,27.31S1536.44,655.36,1551.44,655.36Z"/><path class="cls-1" d="M1606.09,585h38.84c18.42,0,29.16,10.46,29.16,25.46a19.75,19.75,0,0,1-19.83,20.17v.74c11.56,1.11,16.52,7.63,17.59,18.7,1.18,11.81,1.89,17.59,3.18,21h-19.36c-.94-2.34-2.12-7.13-3.07-18.2-.71-8.61-3.89-11.2-12-11.2h-15.7v29.4h-18.77Zm34.35,41.82c7.56,0,14.64-4.18,14.64-13.9,0-8.86-7.08-12.42-14.64-12.42h-15.58v26.32Z"/></g><g id="Camada_7" data-name="Camada 7"><rect width="1920" height="1079.06"/><text/><path class="cls-1" d="M180.49,469.73c0-37.23,23.88-62.8,58.46-62.8,30.29,0,52.52,17.84,54.83,44.95H266c-2.47-11.32-11-20.24-27-20.24-20.75,0-31,14.75-31,38.09s11.2,38.08,31.95,38.08c15.47,0,25.85-8.92,26.18-20.24H233.84V466.29h60.1c3.46,40.67-17.45,66.23-55.32,66.23C202.23,532.52,180.49,507,180.49,469.73Z"/><path class="cls-1" d="M310.91,485.85V409.68h26.34v73.09c0,16.12,6.59,26.76,22.89,26.76s23.05-10.64,23.05-26.76V409.68h26.18v76.17c0,33.63-22.06,46.67-49.23,46.67C333.14,532.52,310.91,519.48,310.91,485.85Z"/><path class="cls-1" d="M425.35,492h28.48c.33,10.29,6.42,19,18.11,19,10.54,0,17.95-4.63,17.95-13.72,0-23.33-60.1-7-60.1-54.39,0-22.82,18.11-36,46.44-36,28,0,44.29,14.07,44.29,40.15H492.86c-.33-10.3-6.26-18.87-17.62-18.87-10.21,0-17.79,5-17.79,13.55,0,23.51,61.09,6.86,61.09,54.39,0,23-18.11,36.37-47.25,36.37C442.47,532.52,425.35,518.28,425.35,492Z"/><path class="cls-1" d="M561.68,432H523.81v-22.3H625.9V432H588v97.8H561.68Z"/><path class="cls-1" d="M665.58,409.68H697.2l45.28,120.1H714.32l-9.71-27.28H658l-9.71,27.28h-28Zm32.28,71.88-16-46.66h-1l-16,46.66Z"/><path class="cls-1" d="M728.65,409.68h28.16l32.44,93.16h1.15l32.44-93.16H851l-45.29,120.1H773.94Z"/><path class="cls-1" d="M851.82,469.73c0-37.23,23.71-62.8,58.78-62.8s58.79,25.57,58.79,62.8-23.72,62.79-58.79,62.79S851.82,507,851.82,469.73Zm58.78,38.08c20.91,0,30.79-14.75,30.79-38.08s-9.88-38.09-30.79-38.09-31,14.75-31,38.09S889.69,507.81,910.6,507.81Z"/><path class="cls-1" d="M1019.77,409.68H1074c25.68,0,40.67,14.58,40.67,35.51A27.55,27.55,0,0,1,1087,473.33v1c16.13,1.54,23,10.64,24.53,26.08,1.65,16.47,2.63,24.53,4.44,29.34h-27c-1.32-3.26-3-10-4.28-25.4-1-12-5.43-15.61-16.8-15.61H1046v41h-26.19ZM1067.69,468c10.54,0,20.42-5.83,20.42-19.39,0-12.35-9.88-17.33-20.42-17.33H1046V468Z"/><path class="cls-1" d="M1135,409.68h86.12V432h-59.94v25.91h52.53v21.62h-52.53v28H1223v22.31H1135Z"/><path class="cls-1" d="M1241.9,409.68h26.35v120.1H1241.9Z"/><path class="cls-1" d="M1290,409.68h26.68l49.72,79.95-.65-79.95h25.85v120.1H1364.9l-49.72-78.41.65,78.41H1290Z"/><path class="cls-1" d="M1413.32,409.68h86.11V432H1439.5v25.91H1492v21.62H1439.5v28h61.74v22.31h-87.92Z"/><path class="cls-1" d="M1520.18,409.68h26.18v49.07h49.07V409.68h26.18v120.1h-26.18V480.71h-49.07v49.07h-26.18Z"/><path class="cls-1" d="M1643.35,409.68h54.17c25.69,0,40.67,14.58,40.67,35.51a27.55,27.55,0,0,1-27.66,28.14v1c16.13,1.54,23,10.64,24.53,26.08,1.65,16.47,2.63,24.53,4.45,29.34h-27c-1.32-3.26-3-10-4.28-25.4-1-12-5.43-15.61-16.79-15.61h-21.9v41h-26.18ZM1691.26,468c10.54,0,20.42-5.83,20.42-19.39,0-12.35-9.88-17.33-20.42-17.33h-21.73V468Z"/><path class="cls-1" d="M616.49,628.05c0-26.69,17.12-45,41.91-45,21.72,0,37.54,13.53,39.31,35.18h-20c-1.89-10.33-7.91-17.47-19.36-17.47-14.88,0-22.2,10.58-22.2,27.31s7.32,27.31,22.2,27.31c11.45,0,17.47-7.14,19.36-17.47h20c-1.77,21.65-17.59,35.18-39.31,35.18C633.61,673.07,616.49,654.74,616.49,628.05Z"/><path class="cls-1" d="M707.27,628.05c0-26.69,17-45,42.14-45s42.15,18.33,42.15,45-17,45-42.15,45S707.27,654.74,707.27,628.05Zm42.14,27.31c15,0,22.08-10.58,22.08-27.31s-7.08-27.31-22.08-27.31-22.19,10.58-22.19,27.31S734.42,655.36,749.41,655.36Z"/><path class="cls-1" d="M804.07,585h19.12l35.66,57.32L858.38,585h18.53v86.1H857.78l-35.65-56.21.47,56.21H804.07Z"/><path class="cls-1" d="M914.21,601H887.06V585h73.19v16H933.1V671.1H914.21Z"/><path class="cls-1" d="M970.4,585h61.74v16h-43v18.57h37.66v15.5H989.17v20.05h44.27v16h-63Z"/><path class="cls-1" d="M1047,585h19.13l35.65,57.32-.47-57.32h18.53v86.1h-19.12l-35.66-56.21.48,56.21H1047Z"/><path class="cls-1" d="M1157.15,601H1130V585h73.2v16H1176V671.1h-18.89Z"/><path class="cls-1" d="M1237,585h61.75v16h-43v18.57h37.66v15.5h-37.66v20.05H1300v16h-63Z"/><path class="cls-1" d="M1313.56,585h33.89c26,0,41.08,17,41.08,43,0,31.86-21.6,43.05-41.08,43.05h-33.89Zm30.58,70.6c13.11,0,25.15-6.64,25.15-27.43s-12-27.67-25.15-27.67h-11.8v55.1Z"/><path class="cls-1" d="M1401.16,585h18.89v86.1h-18.89Z"/><path class="cls-1" d="M1457.35,601H1430.2V585h73.19v16h-27.15V671.1h-18.89Z"/><path class="cls-1" d="M1509.29,628.05c0-26.69,17-45,42.15-45s42.14,18.33,42.14,45-17,45-42.14,45S1509.29,654.74,1509.29,628.05Zm42.15,27.31c15,0,22.07-10.58,22.07-27.31s-7.08-27.31-22.07-27.31-22.2,10.58-22.2,27.31S1536.44,655.36,1551.44,655.36Z"/><path class="cls-1" d="M1606.09,585h38.84c18.42,0,29.16,10.46,29.16,25.46a19.75,19.75,0,0,1-19.83,20.17v.74c11.56,1.11,16.52,7.63,17.59,18.7,1.18,11.81,1.89,17.59,3.18,21h-19.36c-.94-2.34-2.12-7.13-3.07-18.2-.71-8.61-3.89-11.2-12-11.2h-15.7v29.4h-18.77Zm34.35,41.82c7.56,0,14.64-4.18,14.64-13.9,0-8.86-7.08-12.42-14.64-12.42h-15.58v26.32Z"/></g><g id="Camada_6" data-name="Camada 6"><rect width="1920" height="1079.06"/><text/><path class="cls-1" d="M180.49,469.73c0-37.23,23.88-62.8,58.46-62.8,30.29,0,52.52,17.84,54.83,44.95H266c-2.47-11.32-11-20.24-27-20.24-20.75,0-31,14.75-31,38.09s11.2,38.08,31.95,38.08c15.47,0,25.85-8.92,26.18-20.24H233.84V466.29h60.1c3.46,40.67-17.45,66.23-55.32,66.23C202.23,532.52,180.49,507,180.49,469.73Z"/><path class="cls-1" d="M310.91,485.85V409.68h26.34v73.09c0,16.12,6.59,26.76,22.89,26.76s23.05-10.64,23.05-26.76V409.68h26.18v76.17c0,33.63-22.06,46.67-49.23,46.67C333.14,532.52,310.91,519.48,310.91,485.85Z"/><path class="cls-1" d="M425.35,492h28.48c.33,10.29,6.42,19,18.11,19,10.54,0,17.95-4.63,17.95-13.72,0-23.33-60.1-7-60.1-54.39,0-22.82,18.11-36,46.44-36,28,0,44.29,14.07,44.29,40.15H492.86c-.33-10.3-6.26-18.87-17.62-18.87-10.21,0-17.79,5-17.79,13.55,0,23.51,61.09,6.86,61.09,54.39,0,23-18.11,36.37-47.25,36.37C442.47,532.52,425.35,518.28,425.35,492Z"/><path class="cls-1" d="M561.68,432H523.81v-22.3H625.9V432H588v97.8H561.68Z"/><path class="cls-1" d="M665.58,409.68H697.2l45.28,120.1H714.32l-9.71-27.28H658l-9.71,27.28h-28Zm32.28,71.88-16-46.66h-1l-16,46.66Z"/><path class="cls-1" d="M728.65,409.68h28.16l32.44,93.16h1.15l32.44-93.16H851l-45.29,120.1H773.94Z"/><path class="cls-1" d="M851.82,469.73c0-37.23,23.71-62.8,58.78-62.8s58.79,25.57,58.79,62.8-23.72,62.79-58.79,62.79S851.82,507,851.82,469.73Zm58.78,38.08c20.91,0,30.79-14.75,30.79-38.08s-9.88-38.09-30.79-38.09-31,14.75-31,38.09S889.69,507.81,910.6,507.81Z"/><path class="cls-1" d="M1019.77,409.68H1074c25.68,0,40.67,14.58,40.67,35.51A27.55,27.55,0,0,1,1087,473.33v1c16.13,1.54,23,10.64,24.53,26.08,1.65,16.47,2.63,24.53,4.44,29.34h-27c-1.32-3.26-3-10-4.28-25.4-1-12-5.43-15.61-16.8-15.61H1046v41h-26.19ZM1067.69,468c10.54,0,20.42-5.83,20.42-19.39,0-12.35-9.88-17.33-20.42-17.33H1046V468Z"/><path class="cls-1" d="M1135,409.68h86.12V432h-59.94v25.91h52.53v21.62h-52.53v28H1223v22.31H1135Z"/><path class="cls-1" d="M1241.9,409.68h26.35v120.1H1241.9Z"/><path class="cls-1" d="M1290,409.68h26.68l49.72,79.95-.65-79.95h25.85v120.1H1364.9l-49.72-78.41.65,78.41H1290Z"/><path class="cls-1" d="M1413.32,409.68h86.11V432H1439.5v25.91H1492v21.62H1439.5v28h61.74v22.31h-87.92Z"/><path class="cls-1" d="M1520.18,409.68h26.18v49.07h49.07V409.68h26.18v120.1h-26.18V480.71h-49.07v49.07h-26.18Z"/><path class="cls-1" d="M1643.35,409.68h54.17c25.69,0,40.67,14.58,40.67,35.51a27.55,27.55,0,0,1-27.66,28.14v1c16.13,1.54,23,10.64,24.53,26.08,1.65,16.47,2.63,24.53,4.45,29.34h-27c-1.32-3.26-3-10-4.28-25.4-1-12-5.43-15.61-16.79-15.61h-21.9v41h-26.18ZM1691.26,468c10.54,0,20.42-5.83,20.42-19.39,0-12.35-9.88-17.33-20.42-17.33h-21.73V468Z"/><path class="cls-1" d="M616.49,628.05c0-26.69,17.12-45,41.91-45,21.72,0,37.54,13.53,39.31,35.18h-20c-1.89-10.33-7.91-17.47-19.36-17.47-14.88,0-22.2,10.58-22.2,27.31s7.32,27.31,22.2,27.31c11.45,0,17.47-7.14,19.36-17.47h20c-1.77,21.65-17.59,35.18-39.31,35.18C633.61,673.07,616.49,654.74,616.49,628.05Z"/><path class="cls-1" d="M707.27,628.05c0-26.69,17-45,42.14-45s42.15,18.33,42.15,45-17,45-42.15,45S707.27,654.74,707.27,628.05Zm42.14,27.31c15,0,22.08-10.58,22.08-27.31s-7.08-27.31-22.08-27.31-22.19,10.58-22.19,27.31S734.42,655.36,749.41,655.36Z"/><path class="cls-1" d="M804.07,585h19.12l35.66,57.32L858.38,585h18.53v86.1H857.78l-35.65-56.21.47,56.21H804.07Z"/><path class="cls-1" d="M914.21,601H887.06V585h73.19v16H933.1V671.1H914.21Z"/><path class="cls-1" d="M970.4,585h61.74v16h-43v18.57h37.66v15.5H989.17v20.05h44.27v16h-63Z"/><path class="cls-1" d="M1047,585h19.13l35.65,57.32-.47-57.32h18.53v86.1h-19.12l-35.66-56.21.48,56.21H1047Z"/><path class="cls-1" d="M1157.15,601H1130V585h73.2v16H1176V671.1h-18.89Z"/><path class="cls-1" d="M1237,585h61.75v16h-43v18.57h37.66v15.5h-37.66v20.05H1300v16h-63Z"/><path class="cls-1" d="M1313.56,585h33.89c26,0,41.08,17,41.08,43,0,31.86-21.6,43.05-41.08,43.05h-33.89Zm30.58,70.6c13.11,0,25.15-6.64,25.15-27.43s-12-27.67-25.15-27.67h-11.8v55.1Z"/><path class="cls-1" d="M1401.16,585h18.89v86.1h-18.89Z"/><path class="cls-1" d="M1457.35,601H1430.2V585h73.19v16h-27.15V671.1h-18.89Z"/><path class="cls-1" d="M1509.29,628.05c0-26.69,17-45,42.15-45s42.14,18.33,42.14,45-17,45-42.14,45S1509.29,654.74,1509.29,628.05Zm42.15,27.31c15,0,22.07-10.58,22.07-27.31s-7.08-27.31-22.07-27.31-22.2,10.58-22.2,27.31S1536.44,655.36,1551.44,655.36Z"/><path class="cls-1" d="M1606.09,585h38.84c18.42,0,29.16,10.46,29.16,25.46a19.75,19.75,0,0,1-19.83,20.17v.74c11.56,1.11,16.52,7.63,17.59,18.7,1.18,11.81,1.89,17.59,3.18,21h-19.36c-.94-2.34-2.12-7.13-3.07-18.2-.71-8.61-3.89-11.2-12-11.2h-15.7v29.4h-18.77Zm34.35,41.82c7.56,0,14.64-4.18,14.64-13.9,0-8.86-7.08-12.42-14.64-12.42h-15.58v26.32Z"/></g><g id="Camada_5" data-name="Camada 5"><rect width="1920" height="1079.06"/><text/><path class="cls-1" d="M180.49,469.73c0-37.23,23.88-62.8,58.46-62.8,30.29,0,52.52,17.84,54.83,44.95H266c-2.47-11.32-11-20.24-27-20.24-20.75,0-31,14.75-31,38.09s11.2,38.08,31.95,38.08c15.47,0,25.85-8.92,26.18-20.24H233.84V466.29h60.1c3.46,40.67-17.45,66.23-55.32,66.23C202.23,532.52,180.49,507,180.49,469.73Z"/><path class="cls-1" d="M310.91,485.85V409.68h26.34v73.09c0,16.12,6.59,26.76,22.89,26.76s23.05-10.64,23.05-26.76V409.68h26.18v76.17c0,33.63-22.06,46.67-49.23,46.67C333.14,532.52,310.91,519.48,310.91,485.85Z"/><path class="cls-1" d="M425.35,492h28.48c.33,10.29,6.42,19,18.11,19,10.54,0,17.95-4.63,17.95-13.72,0-23.33-60.1-7-60.1-54.39,0-22.82,18.11-36,46.44-36,28,0,44.29,14.07,44.29,40.15H492.86c-.33-10.3-6.26-18.87-17.62-18.87-10.21,0-17.79,5-17.79,13.55,0,23.51,61.09,6.86,61.09,54.39,0,23-18.11,36.37-47.25,36.37C442.47,532.52,425.35,518.28,425.35,492Z"/><path class="cls-1" d="M561.68,432H523.81v-22.3H625.9V432H588v97.8H561.68Z"/><path class="cls-1" d="M665.58,409.68H697.2l45.28,120.1H714.32l-9.71-27.28H658l-9.71,27.28h-28Zm32.28,71.88-16-46.66h-1l-16,46.66Z"/><path class="cls-1" d="M728.65,409.68h28.16l32.44,93.16h1.15l32.44-93.16H851l-45.29,120.1H773.94Z"/><path class="cls-1" d="M851.82,469.73c0-37.23,23.71-62.8,58.78-62.8s58.79,25.57,58.79,62.8-23.72,62.79-58.79,62.79S851.82,507,851.82,469.73Zm58.78,38.08c20.91,0,30.79-14.75,30.79-38.08s-9.88-38.09-30.79-38.09-31,14.75-31,38.09S889.69,507.81,910.6,507.81Z"/><path class="cls-1" d="M1019.77,409.68H1074c25.68,0,40.67,14.58,40.67,35.51A27.55,27.55,0,0,1,1087,473.33v1c16.13,1.54,23,10.64,24.53,26.08,1.65,16.47,2.63,24.53,4.44,29.34h-27c-1.32-3.26-3-10-4.28-25.4-1-12-5.43-15.61-16.8-15.61H1046v41h-26.19ZM1067.69,468c10.54,0,20.42-5.83,20.42-19.39,0-12.35-9.88-17.33-20.42-17.33H1046V468Z"/><path class="cls-1" d="M1135,409.68h86.12V432h-59.94v25.91h52.53v21.62h-52.53v28H1223v22.31H1135Z"/><path class="cls-1" d="M1241.9,409.68h26.35v120.1H1241.9Z"/><path class="cls-1" d="M1290,409.68h26.68l49.72,79.95-.65-79.95h25.85v120.1H1364.9l-49.72-78.41.65,78.41H1290Z"/><path class="cls-1" d="M1413.32,409.68h86.11V432H1439.5v25.91H1492v21.62H1439.5v28h61.74v22.31h-87.92Z"/><path class="cls-1" d="M1520.18,409.68h26.18v49.07h49.07V409.68h26.18v120.1h-26.18V480.71h-49.07v49.07h-26.18Z"/><path class="cls-1" d="M1643.35,409.68h54.17c25.69,0,40.67,14.58,40.67,35.51a27.55,27.55,0,0,1-27.66,28.14v1c16.13,1.54,23,10.64,24.53,26.08,1.65,16.47,2.63,24.53,4.45,29.34h-27c-1.32-3.26-3-10-4.28-25.4-1-12-5.43-15.61-16.79-15.61h-21.9v41h-26.18ZM1691.26,468c10.54,0,20.42-5.83,20.42-19.39,0-12.35-9.88-17.33-20.42-17.33h-21.73V468Z"/><path class="cls-1" d="M616.49,628.05c0-26.69,17.12-45,41.91-45,21.72,0,37.54,13.53,39.31,35.18h-20c-1.89-10.33-7.91-17.47-19.36-17.47-14.88,0-22.2,10.58-22.2,27.31s7.32,27.31,22.2,27.31c11.45,0,17.47-7.14,19.36-17.47h20c-1.77,21.65-17.59,35.18-39.31,35.18C633.61,673.07,616.49,654.74,616.49,628.05Z"/><path class="cls-1" d="M707.27,628.05c0-26.69,17-45,42.14-45s42.15,18.33,42.15,45-17,45-42.15,45S707.27,654.74,707.27,628.05Zm42.14,27.31c15,0,22.08-10.58,22.08-27.31s-7.08-27.31-22.08-27.31-22.19,10.58-22.19,27.31S734.42,655.36,749.41,655.36Z"/><path class="cls-1" d="M804.07,585h19.12l35.66,57.32L858.38,585h18.53v86.1H857.78l-35.65-56.21.47,56.21H804.07Z"/><path class="cls-1" d="M914.21,601H887.06V585h73.19v16H933.1V671.1H914.21Z"/><path class="cls-1" d="M970.4,585h61.74v16h-43v18.57h37.66v15.5H989.17v20.05h44.27v16h-63Z"/><path class="cls-1" d="M1047,585h19.13l35.65,57.32-.47-57.32h18.53v86.1h-19.12l-35.66-56.21.48,56.21H1047Z"/><path class="cls-1" d="M1157.15,601H1130V585h73.2v16H1176V671.1h-18.89Z"/><path class="cls-1" d="M1237,585h61.75v16h-43v18.57h37.66v15.5h-37.66v20.05H1300v16h-63Z"/><path class="cls-1" d="M1313.56,585h33.89c26,0,41.08,17,41.08,43,0,31.86-21.6,43.05-41.08,43.05h-33.89Zm30.58,70.6c13.11,0,25.15-6.64,25.15-27.43s-12-27.67-25.15-27.67h-11.8v55.1Z"/><path class="cls-1" d="M1401.16,585h18.89v86.1h-18.89Z"/><path class="cls-1" d="M1457.35,601H1430.2V585h73.19v16h-27.15V671.1h-18.89Z"/><path class="cls-1" d="M1509.29,628.05c0-26.69,17-45,42.15-45s42.14,18.33,42.14,45-17,45-42.14,45S1509.29,654.74,1509.29,628.05Zm42.15,27.31c15,0,22.07-10.58,22.07-27.31s-7.08-27.31-22.07-27.31-22.2,10.58-22.2,27.31S1536.44,655.36,1551.44,655.36Z"/><path class="cls-1" d="M1606.09,585h38.84c18.42,0,29.16,10.46,29.16,25.46a19.75,19.75,0,0,1-19.83,20.17v.74c11.56,1.11,16.52,7.63,17.59,18.7,1.18,11.81,1.89,17.59,3.18,21h-19.36c-.94-2.34-2.12-7.13-3.07-18.2-.71-8.61-3.89-11.2-12-11.2h-15.7v29.4h-18.77Zm34.35,41.82c7.56,0,14.64-4.18,14.64-13.9,0-8.86-7.08-12.42-14.64-12.42h-15.58v26.32Z"/><path class="cls-1" d="M209.29,665.7a8.45,8.45,0,0,1-2.47-.27,1.15,1.15,0,0,1-.82-1.23,1.66,1.66,0,0,1,1.3-1.58,21.79,21.79,0,0,1,3.63-.89c3.38-.64,5.9-1.67,7.54-3.08s3-3.82,4-7.2l18.78-61.69q1.65-4.93,0-7c-1.1-1.37-3.15-2.37-6.17-3a5.58,5.58,0,0,1-2.74-1.1,2.23,2.23,0,0,1-.69-1.64c0-.55.44-.94,1.31-1.17a11.47,11.47,0,0,1,2.94-.34q1.51,0,6.1.2t8.84.21h21.8a89.79,89.79,0,0,0,14.05-.82q4.72-.83,5.28-.83a1,1,0,0,1,.89.35,2,2,0,0,1,.2,1,4.25,4.25,0,0,1-.2,1.24c-.14.46-.3,1-.48,1.78-.46,1.56-1,3.54-1.72,6a52.74,52.74,0,0,0-1.43,6.38,6.67,6.67,0,0,1-.55,1.51,1.81,1.81,0,0,1-1.78.82,1.2,1.2,0,0,1-1.24-1,8.33,8.33,0,0,1-.27-2.12c0-1.65,0-3.2-.07-4.67a5.08,5.08,0,0,0-1.44-3.56,5.51,5.51,0,0,0-1.92-1.16,8.77,8.77,0,0,0-3.15-.48H259.05q-2.61,0-3.63,1.23a11.05,11.05,0,0,0-1.72,2.88l-1.37,4q-1.23,3.63-2.81,8.57t-3,9.59q-1.44,4.67-2.27,7.13a6.33,6.33,0,0,0-.13,2.26c.09.78.45,1.17,1.09,1.17l18.51-.41a13,13,0,0,0,9.73-5.07,19.67,19.67,0,0,1,2-2,2.94,2.94,0,0,1,1.58-.89,1.43,1.43,0,0,1,1.16.61,1.49,1.49,0,0,1,.07,1.58q-2.34,5.21-3.63,9c-.87,2.51-1.76,5.51-2.68,9a6.74,6.74,0,0,1-.68,1.64,1.25,1.25,0,0,1-1.1.69,1.63,1.63,0,0,1-1.57-1.24,5.51,5.51,0,0,1-.48-1.91q0-4-1.44-5.42a5.5,5.5,0,0,0-3.64-1.58c-1-.09-2.62-.15-4.86-.2s-4.41-.07-6.51-.07h-4.39a11.91,11.91,0,0,0-4,.62c-1.15.41-2,1.62-2.54,3.63l-7,24.4c-.92,3.11-1.23,5.46-1,7.06a4.23,4.23,0,0,0,2.54,3.36,31.34,31.34,0,0,0,5.68,1.78,8.07,8.07,0,0,1,2.75.89,1.81,1.81,0,0,1,.68,1.58q0,1-1.23,1.23a13.56,13.56,0,0,1-2.88.27,49.43,49.43,0,0,1-5.69-.27l-4.25-.48a46,46,0,0,0-4.73-.2,54.63,54.63,0,0,0-7.88.48A61.29,61.29,0,0,1,209.29,665.7Z"/><path class="cls-1" d="M286.19,666.94a5.21,5.21,0,0,1-3.84-1.51,4.44,4.44,0,0,1-1.51-3.15,8.13,8.13,0,0,1,.07-1.1,3.66,3.66,0,0,1,.34-1.1q5.63-11.37,9.46-21.45T297.57,621q.54-1.65-.69-1.65a9.81,9.81,0,0,0-2.67.76,30.53,30.53,0,0,0-4.18,2,35.18,35.18,0,0,0-3.84,2.47,1.31,1.31,0,0,1-1.37.28,1,1,0,0,1-.69-1,3.83,3.83,0,0,1,1-2A24.9,24.9,0,0,1,288,619a53.55,53.55,0,0,1,4.45-3.49q2.61-1.86,5.69-3.7a57,57,0,0,1,6.51-3.36,2.42,2.42,0,0,1,2.47.27,6.52,6.52,0,0,1,2,2.06,2.31,2.31,0,0,1,.48,1.92l-16.72,39.61a8.42,8.42,0,0,0-.76,2.13,9.21,9.21,0,0,0-.2,1.85,1.29,1.29,0,0,0,.75,1.3,3.43,3.43,0,0,0,1.44.34,7.71,7.71,0,0,0,4.39-1.85,59.86,59.86,0,0,0,5.27-4.52c1.87-1.79,3.68-3.54,5.42-5.28a.78.78,0,0,1,.55-.27.86.86,0,0,1,.54.2.59.59,0,0,1,.28.48q0,2.19-2.61,5.55a46.17,46.17,0,0,1-6.51,6.72,50.17,50.17,0,0,1-8,5.69A15.21,15.21,0,0,1,286.19,666.94Zm27.69-72.24a4.28,4.28,0,0,1-3.43-1.65,5.64,5.64,0,0,1-1.37-3.7,8.64,8.64,0,0,1,2.19-5.82,7,7,0,0,1,5.49-2.54,3.9,3.9,0,0,1,3.42,1.85,7.11,7.11,0,0,1,1.24,4,7.82,7.82,0,0,1-2.2,5.41A7,7,0,0,1,313.88,594.7Z"/><path class="cls-1" d="M321.69,666.94a6.35,6.35,0,0,1-4-1.92,5.47,5.47,0,0,1-2.2-4.11,5,5,0,0,1,.28-1.65l26-74.16a24.92,24.92,0,0,0,1-3.7,18.59,18.59,0,0,0,.34-3.56,3.08,3.08,0,0,0-1.3-2.33,7.24,7.24,0,0,0-3.22-1.51,7.13,7.13,0,0,1-2.2-.75c-.54-.32-.82-.67-.82-1a2.71,2.71,0,0,1,.07-.69A1.69,1.69,0,0,1,336,571a.57.57,0,0,1,.47-.27q2.61-.69,6.31-1.3c2.47-.41,4.77-.78,6.92-1.1a36.66,36.66,0,0,1,4.32-.48,1.59,1.59,0,0,1,1.17.48,2.18,2.18,0,0,1,.48,1.58,7.43,7.43,0,0,1-.28,1.85c-.18.68-.36,1.35-.55,2l-27.69,78.95a9.94,9.94,0,0,0-.54,2.13,12.74,12.74,0,0,0-.14,1.85c0,1.46.45,2.19,1.37,2.19,1.28,0,2.85-.71,4.73-2.12a41.49,41.49,0,0,0,5.55-5.14,58.17,58.17,0,0,0,4.39-5.35,15,15,0,0,1,1.92-2.12c.73-.69,1.27-1,1.64-1a.55.55,0,0,1,.62.48,10.63,10.63,0,0,1,.07,1.3,11.09,11.09,0,0,1-1.85,5.76,31.51,31.51,0,0,1-4.87,6,47.44,47.44,0,0,1-6.44,5.28,40.87,40.87,0,0,1-6.58,3.7A14.06,14.06,0,0,1,321.69,666.94Z"/><path class="cls-1" d="M363.5,667.35a1.58,1.58,0,0,1-1.24-.69,5.69,5.69,0,0,1-.89-1.64,5.26,5.26,0,0,1-.34-1.78,14.83,14.83,0,0,1,.89-3.29q.9-2.61,2.26-6.45l12.61-33a3.45,3.45,0,0,0,0-3,2.44,2.44,0,0,0-2.33-1.23,11,11,0,0,0-4.31,1q-2.26,1-5.56,5.35a1.42,1.42,0,0,1-1.16.48c-.41,0-.71-.39-.89-1a11,11,0,0,1,.27-2.13,13.49,13.49,0,0,1,.89-2.67,10.32,10.32,0,0,1,1.17-2.06,20.31,20.31,0,0,1,5.62-4.79,16.47,16.47,0,0,1,7.95-2.06,11.87,11.87,0,0,1,3.77.62,4.65,4.65,0,0,1,2.74,2.26c.59,1.09.53,2.6-.2,4.52L376.93,636c-.27.64-.2,1,.21,1.1a.93.93,0,0,0,1-.55,145.78,145.78,0,0,1,11.3-15.36,51.73,51.73,0,0,1,10.42-9.59q5-3.28,9.39-3.29a8,8,0,0,1,4.73,1.51,7.47,7.47,0,0,1,2.88,4.45,13.11,13.11,0,0,1-.75,7.34L411.2,636c-.27.64-.2,1,.21,1.1a.91.91,0,0,0,1-.55,108.85,108.85,0,0,1,11.31-15.7,48.75,48.75,0,0,1,10.76-9.39c3.48-2.1,6.67-3.15,9.6-3.15a7.3,7.3,0,0,1,4.66,1.64,7.86,7.86,0,0,1,2.67,4.87q.61,3.22-1.3,8l-11.79,30.43q-2.05,4.93.69,4.94a7.8,7.8,0,0,0,4-1.51,44.47,44.47,0,0,0,4.73-3.57c1.6-1.37,3-2.62,4.18-3.77s2-1.89,2.33-2.26a.36.36,0,0,1,.21-.13h.2a1,1,0,0,1,.76.34,1.19,1.19,0,0,1,.34.89,5.89,5.89,0,0,1-.48,2.26,8.69,8.69,0,0,1-2,2.67,75.7,75.7,0,0,1-10.14,9.46,19.22,19.22,0,0,1-12.06,4.39,3.74,3.74,0,0,1-2.26-.89,5.61,5.61,0,0,1-1.79-2.4,4.1,4.1,0,0,1-.07-3l15.91-41c.73-1.83.7-3.2-.07-4.12a3.94,3.94,0,0,0-2.68-1.5q-2.19-.13-5.89,2.26a37.49,37.49,0,0,0-8.22,8q-2.07,2.6-5.69,7.81t-7.41,11.17q-3.77,6-6.51,11a65.72,65.72,0,0,1-4.38,7.26,25.89,25.89,0,0,1-3.7,4.32,4.7,4.7,0,0,1-2.75,1.44,1.64,1.64,0,0,1-1.23-.62,5,5,0,0,1-.89-1.44,4.16,4.16,0,0,1-.34-1.64,17,17,0,0,1,.89-3.5c.59-1.87,1.35-4.09,2.26-6.65L409,619.24q1.23-3.16-.28-4.32a5.81,5.81,0,0,0-2.46-1.3c-1.47-.19-3.43.57-5.9,2.26a41.15,41.15,0,0,0-8.22,8.15q-1.65,1.92-4.12,5.49t-5.27,7.88c-1.88,2.88-3.7,5.8-5.49,8.77s-3.35,5.69-4.72,8.16q-3.57,6.57-5.49,9.8C365.78,666.27,364.59,667.35,363.5,667.35Z"/><path class="cls-1" d="M517.84,667.08a28.92,28.92,0,0,1-12.4-2.54,20.52,20.52,0,0,1-8.43-6.92,17.26,17.26,0,0,1-3-10q0-11,6.51-18a51.2,51.2,0,0,1,16.38-11.51l2.75-1.23-2.06-2.2c-.82-1-1.94-2.24-3.36-3.7a24.94,24.94,0,0,1-3.84-5.28,14.27,14.27,0,0,1-1.71-7.06,13.15,13.15,0,0,1,2.81-8.36,18.36,18.36,0,0,1,7.2-5.48,22.32,22.32,0,0,1,9-1.92,16.68,16.68,0,0,1,9.74,2.67,17.29,17.29,0,0,1,5.75,6.58,17,17,0,0,1,1.92,7.47,11.9,11.9,0,0,1-3.7,9A28.63,28.63,0,0,1,530.73,615l-1.92.68,1.78,1.92q5.2,5.63,9.46,9.73a65.24,65.24,0,0,1,8.36,10.15l1.65,2.46,2.46-2.6c2.2-2.38,4.46-5,6.79-8s4.29-5.6,5.89-8,2.4-4,2.4-4.59a4.77,4.77,0,0,0-3.83-3.84,5.83,5.83,0,0,1-1-.69c-.46-.36-.69-.63-.69-.82,0-.73.43-1.16,1.3-1.3a13.84,13.84,0,0,1,1.72-.21c.27,0,1.07.05,2.39.14s2.72.21,4.19.34,2.51.21,3.15.21a23.77,23.77,0,0,0,4.52-.48c1.65-.32,3.22-.66,4.73-1a17.29,17.29,0,0,1,3.91-.55,2.48,2.48,0,0,1,1,.41c.45.28.68.55.68.83,0,.55-.41,1.09-1.23,1.64a5.52,5.52,0,0,1-2.19,1,14,14,0,0,0-5.76,1.44,18.75,18.75,0,0,0-4.25,2.81q-.56.42-3.15,3.15t-6.24,6.51q-3.63,3.78-7.06,7.48t-8.09,8.63l2.33,3.29a57.24,57.24,0,0,0,8.64,10.08,13.91,13.91,0,0,0,9.46,3.77,27.93,27.93,0,0,0,5.55-.55,18.3,18.3,0,0,0,5.14-1.92,9.38,9.38,0,0,1,1.16-.48,3.67,3.67,0,0,1,1.17-.21,1.34,1.34,0,0,1,1.64,1.65q0,1.1-2.87,3.29a33.75,33.75,0,0,1-6.93,4,19.42,19.42,0,0,1-7.88,1.79,17.08,17.08,0,0,1-14.73-6.93q-2.82-3.49-6.38-9l-1.78-2.88-.82.82c-2.84,3.11-5.55,6-8.16,8.77a35.62,35.62,0,0,1-8.43,6.65A22.11,22.11,0,0,1,517.84,667.08Zm3.57-8.91a23.39,23.39,0,0,0,11.86-2.88,45.31,45.31,0,0,0,10.07-8.23l1.23-1.23-1.64-2.61a74.38,74.38,0,0,0-8.57-10.55q-5.13-5.34-11-11.65l-1.65-1.78-2.88,1.09q-6.3,2.48-9.39,6.24a18.63,18.63,0,0,0-4,8.09,41.25,41.25,0,0,0-.89,8.43,14.11,14.11,0,0,0,4.66,10.69Q513.86,658.16,521.41,658.17ZM527,613.48l1.78-.82A11.5,11.5,0,0,0,534.5,607a18.62,18.62,0,0,0,1.85-8,16.68,16.68,0,0,0-2.26-8.64,7.63,7.63,0,0,0-7.06-3.84,11.28,11.28,0,0,0-7.27,2.54,7.73,7.73,0,0,0-3.15,6.24,20.1,20.1,0,0,0,.55,4.93,13.72,13.72,0,0,0,2.33,4.66,70.28,70.28,0,0,0,5.35,6.31Z"/></g><g id="Camada_4" data-name="Camada 4"><rect width="1920" height="1079.06"/><text/><path class="cls-1" d="M180.49,469.73c0-37.23,23.88-62.8,58.46-62.8,30.29,0,52.52,17.84,54.83,44.95H266c-2.47-11.32-11-20.24-27-20.24-20.75,0-31,14.75-31,38.09s11.2,38.08,31.95,38.08c15.47,0,25.85-8.92,26.18-20.24H233.84V466.29h60.1c3.46,40.67-17.45,66.23-55.32,66.23C202.23,532.52,180.49,507,180.49,469.73Z"/><path class="cls-1" d="M310.91,485.85V409.68h26.34v73.09c0,16.12,6.59,26.76,22.89,26.76s23.05-10.64,23.05-26.76V409.68h26.18v76.17c0,33.63-22.06,46.67-49.23,46.67C333.14,532.52,310.91,519.48,310.91,485.85Z"/><path class="cls-1" d="M425.35,492h28.48c.33,10.29,6.42,19,18.11,19,10.54,0,17.95-4.63,17.95-13.72,0-23.33-60.1-7-60.1-54.39,0-22.82,18.11-36,46.44-36,28,0,44.29,14.07,44.29,40.15H492.86c-.33-10.3-6.26-18.87-17.62-18.87-10.21,0-17.79,5-17.79,13.55,0,23.51,61.09,6.86,61.09,54.39,0,23-18.11,36.37-47.25,36.37C442.47,532.52,425.35,518.28,425.35,492Z"/><path class="cls-1" d="M561.68,432H523.81v-22.3H625.9V432H588v97.8H561.68Z"/><path class="cls-1" d="M665.58,409.68H697.2l45.28,120.1H714.32l-9.71-27.28H658l-9.71,27.28h-28Zm32.28,71.88-16-46.66h-1l-16,46.66Z"/><path class="cls-1" d="M728.65,409.68h28.16l32.44,93.16h1.15l32.44-93.16H851l-45.29,120.1H773.94Z"/><path class="cls-1" d="M851.82,469.73c0-37.23,23.71-62.8,58.78-62.8s58.79,25.57,58.79,62.8-23.72,62.79-58.79,62.79S851.82,507,851.82,469.73Zm58.78,38.08c20.91,0,30.79-14.75,30.79-38.08s-9.88-38.09-30.79-38.09-31,14.75-31,38.09S889.69,507.81,910.6,507.81Z"/><path class="cls-1" d="M1019.77,409.68H1074c25.68,0,40.67,14.58,40.67,35.51A27.55,27.55,0,0,1,1087,473.33v1c16.13,1.54,23,10.64,24.53,26.08,1.65,16.47,2.63,24.53,4.44,29.34h-27c-1.32-3.26-3-10-4.28-25.4-1-12-5.43-15.61-16.8-15.61H1046v41h-26.19ZM1067.69,468c10.54,0,20.42-5.83,20.42-19.39,0-12.35-9.88-17.33-20.42-17.33H1046V468Z"/><path class="cls-1" d="M1135,409.68h86.12V432h-59.94v25.91h52.53v21.62h-52.53v28H1223v22.31H1135Z"/><path class="cls-1" d="M1241.9,409.68h26.35v120.1H1241.9Z"/><path class="cls-1" d="M1290,409.68h26.68l49.72,79.95-.65-79.95h25.85v120.1H1364.9l-49.72-78.41.65,78.41H1290Z"/><path class="cls-1" d="M1413.32,409.68h86.11V432H1439.5v25.91H1492v21.62H1439.5v28h61.74v22.31h-87.92Z"/><path class="cls-1" d="M1520.18,409.68h26.18v49.07h49.07V409.68h26.18v120.1h-26.18V480.71h-49.07v49.07h-26.18Z"/><path class="cls-1" d="M1643.35,409.68h54.17c25.69,0,40.67,14.58,40.67,35.51a27.55,27.55,0,0,1-27.66,28.14v1c16.13,1.54,23,10.64,24.53,26.08,1.65,16.47,2.63,24.53,4.45,29.34h-27c-1.32-3.26-3-10-4.28-25.4-1-12-5.43-15.61-16.79-15.61h-21.9v41h-26.18ZM1691.26,468c10.54,0,20.42-5.83,20.42-19.39,0-12.35-9.88-17.33-20.42-17.33h-21.73V468Z"/><path class="cls-1" d="M616.49,628.05c0-26.69,17.12-45,41.91-45,21.72,0,37.54,13.53,39.31,35.18h-20c-1.89-10.33-7.91-17.47-19.36-17.47-14.88,0-22.2,10.58-22.2,27.31s7.32,27.31,22.2,27.31c11.45,0,17.47-7.14,19.36-17.47h20c-1.77,21.65-17.59,35.18-39.31,35.18C633.61,673.07,616.49,654.74,616.49,628.05Z"/><path class="cls-1" d="M707.27,628.05c0-26.69,17-45,42.14-45s42.15,18.33,42.15,45-17,45-42.15,45S707.27,654.74,707.27,628.05Zm42.14,27.31c15,0,22.08-10.58,22.08-27.31s-7.08-27.31-22.08-27.31-22.19,10.58-22.19,27.31S734.42,655.36,749.41,655.36Z"/><path class="cls-1" d="M804.07,585h19.12l35.66,57.32L858.38,585h18.53v86.1H857.78l-35.65-56.21.47,56.21H804.07Z"/><path class="cls-1" d="M914.21,601H887.06V585h73.19v16H933.1V671.1H914.21Z"/><path class="cls-1" d="M970.4,585h61.74v16h-43v18.57h37.66v15.5H989.17v20.05h44.27v16h-63Z"/><path class="cls-1" d="M1047,585h19.13l35.65,57.32-.47-57.32h18.53v86.1h-19.12l-35.66-56.21.48,56.21H1047Z"/><path class="cls-1" d="M1157.15,601H1130V585h73.2v16H1176V671.1h-18.89Z"/><path class="cls-1" d="M1237,585h61.75v16h-43v18.57h37.66v15.5h-37.66v20.05H1300v16h-63Z"/><path class="cls-1" d="M1313.56,585h33.89c26,0,41.08,17,41.08,43,0,31.86-21.6,43.05-41.08,43.05h-33.89Zm30.58,70.6c13.11,0,25.15-6.64,25.15-27.43s-12-27.67-25.15-27.67h-11.8v55.1Z"/><path class="cls-1" d="M1401.16,585h18.89v86.1h-18.89Z"/><path class="cls-1" d="M1457.35,601H1430.2V585h73.19v16h-27.15V671.1h-18.89Z"/><path class="cls-1" d="M1509.29,628.05c0-26.69,17-45,42.15-45s42.14,18.33,42.14,45-17,45-42.14,45S1509.29,654.74,1509.29,628.05Zm42.15,27.31c15,0,22.07-10.58,22.07-27.31s-7.08-27.31-22.07-27.31-22.2,10.58-22.2,27.31S1536.44,655.36,1551.44,655.36Z"/><path class="cls-1" d="M1606.09,585h38.84c18.42,0,29.16,10.46,29.16,25.46a19.75,19.75,0,0,1-19.83,20.17v.74c11.56,1.11,16.52,7.63,17.59,18.7,1.18,11.81,1.89,17.59,3.18,21h-19.36c-.94-2.34-2.12-7.13-3.07-18.2-.71-8.61-3.89-11.2-12-11.2h-15.7v29.4h-18.77Zm34.35,41.82c7.56,0,14.64-4.18,14.64-13.9,0-8.86-7.08-12.42-14.64-12.42h-15.58v26.32Z"/><path class="cls-1" d="M209.29,665.7a8.45,8.45,0,0,1-2.47-.27,1.15,1.15,0,0,1-.82-1.23,1.66,1.66,0,0,1,1.3-1.58,21.79,21.79,0,0,1,3.63-.89c3.38-.64,5.9-1.67,7.54-3.08s3-3.82,4-7.2l18.78-61.69q1.65-4.93,0-7c-1.1-1.37-3.15-2.37-6.17-3a5.58,5.58,0,0,1-2.74-1.1,2.23,2.23,0,0,1-.69-1.64c0-.55.44-.94,1.31-1.17a11.47,11.47,0,0,1,2.94-.34q1.51,0,6.1.2t8.84.21h21.8a89.79,89.79,0,0,0,14.05-.82q4.72-.83,5.28-.83a1,1,0,0,1,.89.35,2,2,0,0,1,.2,1,4.25,4.25,0,0,1-.2,1.24c-.14.46-.3,1-.48,1.78-.46,1.56-1,3.54-1.72,6a52.74,52.74,0,0,0-1.43,6.38,6.67,6.67,0,0,1-.55,1.51,1.81,1.81,0,0,1-1.78.82,1.2,1.2,0,0,1-1.24-1,8.33,8.33,0,0,1-.27-2.12c0-1.65,0-3.2-.07-4.67a5.08,5.08,0,0,0-1.44-3.56,5.51,5.51,0,0,0-1.92-1.16,8.77,8.77,0,0,0-3.15-.48H259.05q-2.61,0-3.63,1.23a11.05,11.05,0,0,0-1.72,2.88l-1.37,4q-1.23,3.63-2.81,8.57t-3,9.59q-1.44,4.67-2.27,7.13a6.33,6.33,0,0,0-.13,2.26c.09.78.45,1.17,1.09,1.17l18.51-.41a13,13,0,0,0,9.73-5.07,19.67,19.67,0,0,1,2-2,2.94,2.94,0,0,1,1.58-.89,1.43,1.43,0,0,1,1.16.61,1.49,1.49,0,0,1,.07,1.58q-2.34,5.21-3.63,9c-.87,2.51-1.76,5.51-2.68,9a6.74,6.74,0,0,1-.68,1.64,1.25,1.25,0,0,1-1.1.69,1.63,1.63,0,0,1-1.57-1.24,5.51,5.51,0,0,1-.48-1.91q0-4-1.44-5.42a5.5,5.5,0,0,0-3.64-1.58c-1-.09-2.62-.15-4.86-.2s-4.41-.07-6.51-.07h-4.39a11.91,11.91,0,0,0-4,.62c-1.15.41-2,1.62-2.54,3.63l-7,24.4c-.92,3.11-1.23,5.46-1,7.06a4.23,4.23,0,0,0,2.54,3.36,31.34,31.34,0,0,0,5.68,1.78,8.07,8.07,0,0,1,2.75.89,1.81,1.81,0,0,1,.68,1.58q0,1-1.23,1.23a13.56,13.56,0,0,1-2.88.27,49.43,49.43,0,0,1-5.69-.27l-4.25-.48a46,46,0,0,0-4.73-.2,54.63,54.63,0,0,0-7.88.48A61.29,61.29,0,0,1,209.29,665.7Z"/><path class="cls-1" d="M286.19,666.94a5.21,5.21,0,0,1-3.84-1.51,4.44,4.44,0,0,1-1.51-3.15,8.13,8.13,0,0,1,.07-1.1,3.66,3.66,0,0,1,.34-1.1q5.63-11.37,9.46-21.45T297.57,621q.54-1.65-.69-1.65a9.81,9.81,0,0,0-2.67.76,30.53,30.53,0,0,0-4.18,2,35.18,35.18,0,0,0-3.84,2.47,1.31,1.31,0,0,1-1.37.28,1,1,0,0,1-.69-1,3.83,3.83,0,0,1,1-2A24.9,24.9,0,0,1,288,619a53.55,53.55,0,0,1,4.45-3.49q2.61-1.86,5.69-3.7a57,57,0,0,1,6.51-3.36,2.42,2.42,0,0,1,2.47.27,6.52,6.52,0,0,1,2,2.06,2.31,2.31,0,0,1,.48,1.92l-16.72,39.61a8.42,8.42,0,0,0-.76,2.13,9.21,9.21,0,0,0-.2,1.85,1.29,1.29,0,0,0,.75,1.3,3.43,3.43,0,0,0,1.44.34,7.71,7.71,0,0,0,4.39-1.85,59.86,59.86,0,0,0,5.27-4.52c1.87-1.79,3.68-3.54,5.42-5.28a.78.78,0,0,1,.55-.27.86.86,0,0,1,.54.2.59.59,0,0,1,.28.48q0,2.19-2.61,5.55a46.17,46.17,0,0,1-6.51,6.72,50.17,50.17,0,0,1-8,5.69A15.21,15.21,0,0,1,286.19,666.94Zm27.69-72.24a4.28,4.28,0,0,1-3.43-1.65,5.64,5.64,0,0,1-1.37-3.7,8.64,8.64,0,0,1,2.19-5.82,7,7,0,0,1,5.49-2.54,3.9,3.9,0,0,1,3.42,1.85,7.11,7.11,0,0,1,1.24,4,7.82,7.82,0,0,1-2.2,5.41A7,7,0,0,1,313.88,594.7Z"/><path class="cls-1" d="M321.69,666.94a6.35,6.35,0,0,1-4-1.92,5.47,5.47,0,0,1-2.2-4.11,5,5,0,0,1,.28-1.65l26-74.16a24.92,24.92,0,0,0,1-3.7,18.59,18.59,0,0,0,.34-3.56,3.08,3.08,0,0,0-1.3-2.33,7.24,7.24,0,0,0-3.22-1.51,7.13,7.13,0,0,1-2.2-.75c-.54-.32-.82-.67-.82-1a2.71,2.71,0,0,1,.07-.69A1.69,1.69,0,0,1,336,571a.57.57,0,0,1,.47-.27q2.61-.69,6.31-1.3c2.47-.41,4.77-.78,6.92-1.1a36.66,36.66,0,0,1,4.32-.48,1.59,1.59,0,0,1,1.17.48,2.18,2.18,0,0,1,.48,1.58,7.43,7.43,0,0,1-.28,1.85c-.18.68-.36,1.35-.55,2l-27.69,78.95a9.94,9.94,0,0,0-.54,2.13,12.74,12.74,0,0,0-.14,1.85c0,1.46.45,2.19,1.37,2.19,1.28,0,2.85-.71,4.73-2.12a41.49,41.49,0,0,0,5.55-5.14,58.17,58.17,0,0,0,4.39-5.35,15,15,0,0,1,1.92-2.12c.73-.69,1.27-1,1.64-1a.55.55,0,0,1,.62.48,10.63,10.63,0,0,1,.07,1.3,11.09,11.09,0,0,1-1.85,5.76,31.51,31.51,0,0,1-4.87,6,47.44,47.44,0,0,1-6.44,5.28,40.87,40.87,0,0,1-6.58,3.7A14.06,14.06,0,0,1,321.69,666.94Z"/><path class="cls-1" d="M363.5,667.35a1.58,1.58,0,0,1-1.24-.69,5.69,5.69,0,0,1-.89-1.64,5.26,5.26,0,0,1-.34-1.78,14.83,14.83,0,0,1,.89-3.29q.9-2.61,2.26-6.45l12.61-33a3.45,3.45,0,0,0,0-3,2.44,2.44,0,0,0-2.33-1.23,11,11,0,0,0-4.31,1q-2.26,1-5.56,5.35a1.42,1.42,0,0,1-1.16.48c-.41,0-.71-.39-.89-1a11,11,0,0,1,.27-2.13,13.49,13.49,0,0,1,.89-2.67,10.32,10.32,0,0,1,1.17-2.06,20.31,20.31,0,0,1,5.62-4.79,16.47,16.47,0,0,1,7.95-2.06,11.87,11.87,0,0,1,3.77.62,4.65,4.65,0,0,1,2.74,2.26c.59,1.09.53,2.6-.2,4.52L376.93,636c-.27.64-.2,1,.21,1.1a.93.93,0,0,0,1-.55,145.78,145.78,0,0,1,11.3-15.36,51.73,51.73,0,0,1,10.42-9.59q5-3.28,9.39-3.29a8,8,0,0,1,4.73,1.51,7.47,7.47,0,0,1,2.88,4.45,13.11,13.11,0,0,1-.75,7.34L411.2,636c-.27.64-.2,1,.21,1.1a.91.91,0,0,0,1-.55,108.85,108.85,0,0,1,11.31-15.7,48.75,48.75,0,0,1,10.76-9.39c3.48-2.1,6.67-3.15,9.6-3.15a7.3,7.3,0,0,1,4.66,1.64,7.86,7.86,0,0,1,2.67,4.87q.61,3.22-1.3,8l-11.79,30.43q-2.05,4.93.69,4.94a7.8,7.8,0,0,0,4-1.51,44.47,44.47,0,0,0,4.73-3.57c1.6-1.37,3-2.62,4.18-3.77s2-1.89,2.33-2.26a.36.36,0,0,1,.21-.13h.2a1,1,0,0,1,.76.34,1.19,1.19,0,0,1,.34.89,5.89,5.89,0,0,1-.48,2.26,8.69,8.69,0,0,1-2,2.67,75.7,75.7,0,0,1-10.14,9.46,19.22,19.22,0,0,1-12.06,4.39,3.74,3.74,0,0,1-2.26-.89,5.61,5.61,0,0,1-1.79-2.4,4.1,4.1,0,0,1-.07-3l15.91-41c.73-1.83.7-3.2-.07-4.12a3.94,3.94,0,0,0-2.68-1.5q-2.19-.13-5.89,2.26a37.49,37.49,0,0,0-8.22,8q-2.07,2.6-5.69,7.81t-7.41,11.17q-3.77,6-6.51,11a65.72,65.72,0,0,1-4.38,7.26,25.89,25.89,0,0,1-3.7,4.32,4.7,4.7,0,0,1-2.75,1.44,1.64,1.64,0,0,1-1.23-.62,5,5,0,0,1-.89-1.44,4.16,4.16,0,0,1-.34-1.64,17,17,0,0,1,.89-3.5c.59-1.87,1.35-4.09,2.26-6.65L409,619.24q1.23-3.16-.28-4.32a5.81,5.81,0,0,0-2.46-1.3c-1.47-.19-3.43.57-5.9,2.26a41.15,41.15,0,0,0-8.22,8.15q-1.65,1.92-4.12,5.49t-5.27,7.88c-1.88,2.88-3.7,5.8-5.49,8.77s-3.35,5.69-4.72,8.16q-3.57,6.57-5.49,9.8C365.78,666.27,364.59,667.35,363.5,667.35Z"/><path class="cls-1" d="M517.84,667.08a28.92,28.92,0,0,1-12.4-2.54,20.52,20.52,0,0,1-8.43-6.92,17.26,17.26,0,0,1-3-10q0-11,6.51-18a51.2,51.2,0,0,1,16.38-11.51l2.75-1.23-2.06-2.2c-.82-1-1.94-2.24-3.36-3.7a24.94,24.94,0,0,1-3.84-5.28,14.27,14.27,0,0,1-1.71-7.06,13.15,13.15,0,0,1,2.81-8.36,18.36,18.36,0,0,1,7.2-5.48,22.32,22.32,0,0,1,9-1.92,16.68,16.68,0,0,1,9.74,2.67,17.29,17.29,0,0,1,5.75,6.58,17,17,0,0,1,1.92,7.47,11.9,11.9,0,0,1-3.7,9A28.63,28.63,0,0,1,530.73,615l-1.92.68,1.78,1.92q5.2,5.63,9.46,9.73a65.24,65.24,0,0,1,8.36,10.15l1.65,2.46,2.46-2.6c2.2-2.38,4.46-5,6.79-8s4.29-5.6,5.89-8,2.4-4,2.4-4.59a4.77,4.77,0,0,0-3.83-3.84,5.83,5.83,0,0,1-1-.69c-.46-.36-.69-.63-.69-.82,0-.73.43-1.16,1.3-1.3a13.84,13.84,0,0,1,1.72-.21c.27,0,1.07.05,2.39.14s2.72.21,4.19.34,2.51.21,3.15.21a23.77,23.77,0,0,0,4.52-.48c1.65-.32,3.22-.66,4.73-1a17.29,17.29,0,0,1,3.91-.55,2.48,2.48,0,0,1,1,.41c.45.28.68.55.68.83,0,.55-.41,1.09-1.23,1.64a5.52,5.52,0,0,1-2.19,1,14,14,0,0,0-5.76,1.44,18.75,18.75,0,0,0-4.25,2.81q-.56.42-3.15,3.15t-6.24,6.51q-3.63,3.78-7.06,7.48t-8.09,8.63l2.33,3.29a57.24,57.24,0,0,0,8.64,10.08,13.91,13.91,0,0,0,9.46,3.77,27.93,27.93,0,0,0,5.55-.55,18.3,18.3,0,0,0,5.14-1.92,9.38,9.38,0,0,1,1.16-.48,3.67,3.67,0,0,1,1.17-.21,1.34,1.34,0,0,1,1.64,1.65q0,1.1-2.87,3.29a33.75,33.75,0,0,1-6.93,4,19.42,19.42,0,0,1-7.88,1.79,17.08,17.08,0,0,1-14.73-6.93q-2.82-3.49-6.38-9l-1.78-2.88-.82.82c-2.84,3.11-5.55,6-8.16,8.77a35.62,35.62,0,0,1-8.43,6.65A22.11,22.11,0,0,1,517.84,667.08Zm3.57-8.91a23.39,23.39,0,0,0,11.86-2.88,45.31,45.31,0,0,0,10.07-8.23l1.23-1.23-1.64-2.61a74.38,74.38,0,0,0-8.57-10.55q-5.13-5.34-11-11.65l-1.65-1.78-2.88,1.09q-6.3,2.48-9.39,6.24a18.63,18.63,0,0,0-4,8.09,41.25,41.25,0,0,0-.89,8.43,14.11,14.11,0,0,0,4.66,10.69Q513.86,658.16,521.41,658.17ZM527,613.48l1.78-.82A11.5,11.5,0,0,0,534.5,607a18.62,18.62,0,0,0,1.85-8,16.68,16.68,0,0,0-2.26-8.64,7.63,7.63,0,0,0-7.06-3.84,11.28,11.28,0,0,0-7.27,2.54,7.73,7.73,0,0,0-3.15,6.24,20.1,20.1,0,0,0,.55,4.93,13.72,13.72,0,0,0,2.33,4.66,70.28,70.28,0,0,0,5.35,6.31Z"/></g><g id="Camada_3" data-name="Camada 3"><rect width="1920" height="1079.06"/><text/><path class="cls-1" d="M180.49,469.73c0-37.23,23.88-62.8,58.46-62.8,30.29,0,52.52,17.84,54.83,44.95H266c-2.47-11.32-11-20.24-27-20.24-20.75,0-31,14.75-31,38.09s11.2,38.08,31.95,38.08c15.47,0,25.85-8.92,26.18-20.24H233.84V466.29h60.1c3.46,40.67-17.45,66.23-55.32,66.23C202.23,532.52,180.49,507,180.49,469.73Z"/><path class="cls-1" d="M310.91,485.85V409.68h26.34v73.09c0,16.12,6.59,26.76,22.89,26.76s23.05-10.64,23.05-26.76V409.68h26.18v76.17c0,33.63-22.06,46.67-49.23,46.67C333.14,532.52,310.91,519.48,310.91,485.85Z"/><path class="cls-1" d="M425.35,492h28.48c.33,10.29,6.42,19,18.11,19,10.54,0,17.95-4.63,17.95-13.72,0-23.33-60.1-7-60.1-54.39,0-22.82,18.11-36,46.44-36,28,0,44.29,14.07,44.29,40.15H492.86c-.33-10.3-6.26-18.87-17.62-18.87-10.21,0-17.79,5-17.79,13.55,0,23.51,61.09,6.86,61.09,54.39,0,23-18.11,36.37-47.25,36.37C442.47,532.52,425.35,518.28,425.35,492Z"/><path class="cls-1" d="M561.68,432H523.81v-22.3H625.9V432H588v97.8H561.68Z"/><path class="cls-1" d="M665.58,409.68H697.2l45.28,120.1H714.32l-9.71-27.28H658l-9.71,27.28h-28Zm32.28,71.88-16-46.66h-1l-16,46.66Z"/><path class="cls-1" d="M728.65,409.68h28.16l32.44,93.16h1.15l32.44-93.16H851l-45.29,120.1H773.94Z"/><path class="cls-1" d="M851.82,469.73c0-37.23,23.71-62.8,58.78-62.8s58.79,25.57,58.79,62.8-23.72,62.79-58.79,62.79S851.82,507,851.82,469.73Zm58.78,38.08c20.91,0,30.79-14.75,30.79-38.08s-9.88-38.09-30.79-38.09-31,14.75-31,38.09S889.69,507.81,910.6,507.81Z"/><path class="cls-1" d="M1019.77,409.68H1074c25.68,0,40.67,14.58,40.67,35.51A27.55,27.55,0,0,1,1087,473.33v1c16.13,1.54,23,10.64,24.53,26.08,1.65,16.47,2.63,24.53,4.44,29.34h-27c-1.32-3.26-3-10-4.28-25.4-1-12-5.43-15.61-16.8-15.61H1046v41h-26.19ZM1067.69,468c10.54,0,20.42-5.83,20.42-19.39,0-12.35-9.88-17.33-20.42-17.33H1046V468Z"/><path class="cls-1" d="M1135,409.68h86.12V432h-59.94v25.91h52.53v21.62h-52.53v28H1223v22.31H1135Z"/><path class="cls-1" d="M1241.9,409.68h26.35v120.1H1241.9Z"/><path class="cls-1" d="M1290,409.68h26.68l49.72,79.95-.65-79.95h25.85v120.1H1364.9l-49.72-78.41.65,78.41H1290Z"/><path class="cls-1" d="M1413.32,409.68h86.11V432H1439.5v25.91H1492v21.62H1439.5v28h61.74v22.31h-87.92Z"/><path class="cls-1" d="M1520.18,409.68h26.18v49.07h49.07V409.68h26.18v120.1h-26.18V480.71h-49.07v49.07h-26.18Z"/><path class="cls-1" d="M1643.35,409.68h54.17c25.69,0,40.67,14.58,40.67,35.51a27.55,27.55,0,0,1-27.66,28.14v1c16.13,1.54,23,10.64,24.53,26.08,1.65,16.47,2.63,24.53,4.45,29.34h-27c-1.32-3.26-3-10-4.28-25.4-1-12-5.43-15.61-16.79-15.61h-21.9v41h-26.18ZM1691.26,468c10.54,0,20.42-5.83,20.42-19.39,0-12.35-9.88-17.33-20.42-17.33h-21.73V468Z"/><path class="cls-1" d="M616.49,628.05c0-26.69,17.12-45,41.91-45,21.72,0,37.54,13.53,39.31,35.18h-20c-1.89-10.33-7.91-17.47-19.36-17.47-14.88,0-22.2,10.58-22.2,27.31s7.32,27.31,22.2,27.31c11.45,0,17.47-7.14,19.36-17.47h20c-1.77,21.65-17.59,35.18-39.31,35.18C633.61,673.07,616.49,654.74,616.49,628.05Z"/><path class="cls-1" d="M707.27,628.05c0-26.69,17-45,42.14-45s42.15,18.33,42.15,45-17,45-42.15,45S707.27,654.74,707.27,628.05Zm42.14,27.31c15,0,22.08-10.58,22.08-27.31s-7.08-27.31-22.08-27.31-22.19,10.58-22.19,27.31S734.42,655.36,749.41,655.36Z"/><path class="cls-1" d="M804.07,585h19.12l35.66,57.32L858.38,585h18.53v86.1H857.78l-35.65-56.21.47,56.21H804.07Z"/><path class="cls-1" d="M914.21,601H887.06V585h73.19v16H933.1V671.1H914.21Z"/><path class="cls-1" d="M970.4,585h61.74v16h-43v18.57h37.66v15.5H989.17v20.05h44.27v16h-63Z"/><path class="cls-1" d="M1047,585h19.13l35.65,57.32-.47-57.32h18.53v86.1h-19.12l-35.66-56.21.48,56.21H1047Z"/><path class="cls-1" d="M1157.15,601H1130V585h73.2v16H1176V671.1h-18.89Z"/><path class="cls-1" d="M1237,585h61.75v16h-43v18.57h37.66v15.5h-37.66v20.05H1300v16h-63Z"/><path class="cls-1" d="M1313.56,585h33.89c26,0,41.08,17,41.08,43,0,31.86-21.6,43.05-41.08,43.05h-33.89Zm30.58,70.6c13.11,0,25.15-6.64,25.15-27.43s-12-27.67-25.15-27.67h-11.8v55.1Z"/><path class="cls-1" d="M1401.16,585h18.89v86.1h-18.89Z"/><path class="cls-1" d="M1457.35,601H1430.2V585h73.19v16h-27.15V671.1h-18.89Z"/><path class="cls-1" d="M1509.29,628.05c0-26.69,17-45,42.15-45s42.14,18.33,42.14,45-17,45-42.14,45S1509.29,654.74,1509.29,628.05Zm42.15,27.31c15,0,22.07-10.58,22.07-27.31s-7.08-27.31-22.07-27.31-22.2,10.58-22.2,27.31S1536.44,655.36,1551.44,655.36Z"/><path class="cls-1" d="M1606.09,585h38.84c18.42,0,29.16,10.46,29.16,25.46a19.75,19.75,0,0,1-19.83,20.17v.74c11.56,1.11,16.52,7.63,17.59,18.7,1.18,11.81,1.89,17.59,3.18,21h-19.36c-.94-2.34-2.12-7.13-3.07-18.2-.71-8.61-3.89-11.2-12-11.2h-15.7v29.4h-18.77Zm34.35,41.82c7.56,0,14.64-4.18,14.64-13.9,0-8.86-7.08-12.42-14.64-12.42h-15.58v26.32Z"/><path class="cls-1" d="M209.29,665.7a8.45,8.45,0,0,1-2.47-.27,1.15,1.15,0,0,1-.82-1.23,1.66,1.66,0,0,1,1.3-1.58,21.79,21.79,0,0,1,3.63-.89c3.38-.64,5.9-1.67,7.54-3.08s3-3.82,4-7.2l18.78-61.69q1.65-4.93,0-7c-1.1-1.37-3.15-2.37-6.17-3a5.58,5.58,0,0,1-2.74-1.1,2.23,2.23,0,0,1-.69-1.64c0-.55.44-.94,1.31-1.17a11.47,11.47,0,0,1,2.94-.34q1.51,0,6.1.2t8.84.21h21.8a89.79,89.79,0,0,0,14.05-.82q4.72-.83,5.28-.83a1,1,0,0,1,.89.35,2,2,0,0,1,.2,1,4.25,4.25,0,0,1-.2,1.24c-.14.46-.3,1-.48,1.78-.46,1.56-1,3.54-1.72,6a52.74,52.74,0,0,0-1.43,6.38,6.67,6.67,0,0,1-.55,1.51,1.81,1.81,0,0,1-1.78.82,1.2,1.2,0,0,1-1.24-1,8.33,8.33,0,0,1-.27-2.12c0-1.65,0-3.2-.07-4.67a5.08,5.08,0,0,0-1.44-3.56,5.51,5.51,0,0,0-1.92-1.16,8.77,8.77,0,0,0-3.15-.48H259.05q-2.61,0-3.63,1.23a11.05,11.05,0,0,0-1.72,2.88l-1.37,4q-1.23,3.63-2.81,8.57t-3,9.59q-1.44,4.67-2.27,7.13a6.33,6.33,0,0,0-.13,2.26c.09.78.45,1.17,1.09,1.17l18.51-.41a13,13,0,0,0,9.73-5.07,19.67,19.67,0,0,1,2-2,2.94,2.94,0,0,1,1.58-.89,1.43,1.43,0,0,1,1.16.61,1.49,1.49,0,0,1,.07,1.58q-2.34,5.21-3.63,9c-.87,2.51-1.76,5.51-2.68,9a6.74,6.74,0,0,1-.68,1.64,1.25,1.25,0,0,1-1.1.69,1.63,1.63,0,0,1-1.57-1.24,5.51,5.51,0,0,1-.48-1.91q0-4-1.44-5.42a5.5,5.5,0,0,0-3.64-1.58c-1-.09-2.62-.15-4.86-.2s-4.41-.07-6.51-.07h-4.39a11.91,11.91,0,0,0-4,.62c-1.15.41-2,1.62-2.54,3.63l-7,24.4c-.92,3.11-1.23,5.46-1,7.06a4.23,4.23,0,0,0,2.54,3.36,31.34,31.34,0,0,0,5.68,1.78,8.07,8.07,0,0,1,2.75.89,1.81,1.81,0,0,1,.68,1.58q0,1-1.23,1.23a13.56,13.56,0,0,1-2.88.27,49.43,49.43,0,0,1-5.69-.27l-4.25-.48a46,46,0,0,0-4.73-.2,54.63,54.63,0,0,0-7.88.48A61.29,61.29,0,0,1,209.29,665.7Z"/><path class="cls-1" d="M286.19,666.94a5.21,5.21,0,0,1-3.84-1.51,4.44,4.44,0,0,1-1.51-3.15,8.13,8.13,0,0,1,.07-1.1,3.66,3.66,0,0,1,.34-1.1q5.63-11.37,9.46-21.45T297.57,621q.54-1.65-.69-1.65a9.81,9.81,0,0,0-2.67.76,30.53,30.53,0,0,0-4.18,2,35.18,35.18,0,0,0-3.84,2.47,1.31,1.31,0,0,1-1.37.28,1,1,0,0,1-.69-1,3.83,3.83,0,0,1,1-2A24.9,24.9,0,0,1,288,619a53.55,53.55,0,0,1,4.45-3.49q2.61-1.86,5.69-3.7a57,57,0,0,1,6.51-3.36,2.42,2.42,0,0,1,2.47.27,6.52,6.52,0,0,1,2,2.06,2.31,2.31,0,0,1,.48,1.92l-16.72,39.61a8.42,8.42,0,0,0-.76,2.13,9.21,9.21,0,0,0-.2,1.85,1.29,1.29,0,0,0,.75,1.3,3.43,3.43,0,0,0,1.44.34,7.71,7.71,0,0,0,4.39-1.85,59.86,59.86,0,0,0,5.27-4.52c1.87-1.79,3.68-3.54,5.42-5.28a.78.78,0,0,1,.55-.27.86.86,0,0,1,.54.2.59.59,0,0,1,.28.48q0,2.19-2.61,5.55a46.17,46.17,0,0,1-6.51,6.72,50.17,50.17,0,0,1-8,5.69A15.21,15.21,0,0,1,286.19,666.94Zm27.69-72.24a4.28,4.28,0,0,1-3.43-1.65,5.64,5.64,0,0,1-1.37-3.7,8.64,8.64,0,0,1,2.19-5.82,7,7,0,0,1,5.49-2.54,3.9,3.9,0,0,1,3.42,1.85,7.11,7.11,0,0,1,1.24,4,7.82,7.82,0,0,1-2.2,5.41A7,7,0,0,1,313.88,594.7Z"/><path class="cls-1" d="M321.69,666.94a6.35,6.35,0,0,1-4-1.92,5.47,5.47,0,0,1-2.2-4.11,5,5,0,0,1,.28-1.65l26-74.16a24.92,24.92,0,0,0,1-3.7,18.59,18.59,0,0,0,.34-3.56,3.08,3.08,0,0,0-1.3-2.33,7.24,7.24,0,0,0-3.22-1.51,7.13,7.13,0,0,1-2.2-.75c-.54-.32-.82-.67-.82-1a2.71,2.71,0,0,1,.07-.69A1.69,1.69,0,0,1,336,571a.57.57,0,0,1,.47-.27q2.61-.69,6.31-1.3c2.47-.41,4.77-.78,6.92-1.1a36.66,36.66,0,0,1,4.32-.48,1.59,1.59,0,0,1,1.17.48,2.18,2.18,0,0,1,.48,1.58,7.43,7.43,0,0,1-.28,1.85c-.18.68-.36,1.35-.55,2l-27.69,78.95a9.94,9.94,0,0,0-.54,2.13,12.74,12.74,0,0,0-.14,1.85c0,1.46.45,2.19,1.37,2.19,1.28,0,2.85-.71,4.73-2.12a41.49,41.49,0,0,0,5.55-5.14,58.17,58.17,0,0,0,4.39-5.35,15,15,0,0,1,1.92-2.12c.73-.69,1.27-1,1.64-1a.55.55,0,0,1,.62.48,10.63,10.63,0,0,1,.07,1.3,11.09,11.09,0,0,1-1.85,5.76,31.51,31.51,0,0,1-4.87,6,47.44,47.44,0,0,1-6.44,5.28,40.87,40.87,0,0,1-6.58,3.7A14.06,14.06,0,0,1,321.69,666.94Z"/><path class="cls-1" d="M363.5,667.35a1.58,1.58,0,0,1-1.24-.69,5.69,5.69,0,0,1-.89-1.64,5.26,5.26,0,0,1-.34-1.78,14.83,14.83,0,0,1,.89-3.29q.9-2.61,2.26-6.45l12.61-33a3.45,3.45,0,0,0,0-3,2.44,2.44,0,0,0-2.33-1.23,11,11,0,0,0-4.31,1q-2.26,1-5.56,5.35a1.42,1.42,0,0,1-1.16.48c-.41,0-.71-.39-.89-1a11,11,0,0,1,.27-2.13,13.49,13.49,0,0,1,.89-2.67,10.32,10.32,0,0,1,1.17-2.06,20.31,20.31,0,0,1,5.62-4.79,16.47,16.47,0,0,1,7.95-2.06,11.87,11.87,0,0,1,3.77.62,4.65,4.65,0,0,1,2.74,2.26c.59,1.09.53,2.6-.2,4.52L376.93,636c-.27.64-.2,1,.21,1.1a.93.93,0,0,0,1-.55,145.78,145.78,0,0,1,11.3-15.36,51.73,51.73,0,0,1,10.42-9.59q5-3.28,9.39-3.29a8,8,0,0,1,4.73,1.51,7.47,7.47,0,0,1,2.88,4.45,13.11,13.11,0,0,1-.75,7.34L411.2,636c-.27.64-.2,1,.21,1.1a.91.91,0,0,0,1-.55,108.85,108.85,0,0,1,11.31-15.7,48.75,48.75,0,0,1,10.76-9.39c3.48-2.1,6.67-3.15,9.6-3.15a7.3,7.3,0,0,1,4.66,1.64,7.86,7.86,0,0,1,2.67,4.87q.61,3.22-1.3,8l-11.79,30.43q-2.05,4.93.69,4.94a7.8,7.8,0,0,0,4-1.51,44.47,44.47,0,0,0,4.73-3.57c1.6-1.37,3-2.62,4.18-3.77s2-1.89,2.33-2.26a.36.36,0,0,1,.21-.13h.2a1,1,0,0,1,.76.34,1.19,1.19,0,0,1,.34.89,5.89,5.89,0,0,1-.48,2.26,8.69,8.69,0,0,1-2,2.67,75.7,75.7,0,0,1-10.14,9.46,19.22,19.22,0,0,1-12.06,4.39,3.74,3.74,0,0,1-2.26-.89,5.61,5.61,0,0,1-1.79-2.4,4.1,4.1,0,0,1-.07-3l15.91-41c.73-1.83.7-3.2-.07-4.12a3.94,3.94,0,0,0-2.68-1.5q-2.19-.13-5.89,2.26a37.49,37.49,0,0,0-8.22,8q-2.07,2.6-5.69,7.81t-7.41,11.17q-3.77,6-6.51,11a65.72,65.72,0,0,1-4.38,7.26,25.89,25.89,0,0,1-3.7,4.32,4.7,4.7,0,0,1-2.75,1.44,1.64,1.64,0,0,1-1.23-.62,5,5,0,0,1-.89-1.44,4.16,4.16,0,0,1-.34-1.64,17,17,0,0,1,.89-3.5c.59-1.87,1.35-4.09,2.26-6.65L409,619.24q1.23-3.16-.28-4.32a5.81,5.81,0,0,0-2.46-1.3c-1.47-.19-3.43.57-5.9,2.26a41.15,41.15,0,0,0-8.22,8.15q-1.65,1.92-4.12,5.49t-5.27,7.88c-1.88,2.88-3.7,5.8-5.49,8.77s-3.35,5.69-4.72,8.16q-3.57,6.57-5.49,9.8C365.78,666.27,364.59,667.35,363.5,667.35Z"/><path class="cls-1" d="M517.84,667.08a28.92,28.92,0,0,1-12.4-2.54,20.52,20.52,0,0,1-8.43-6.92,17.26,17.26,0,0,1-3-10q0-11,6.51-18a51.2,51.2,0,0,1,16.38-11.51l2.75-1.23-2.06-2.2c-.82-1-1.94-2.24-3.36-3.7a24.94,24.94,0,0,1-3.84-5.28,14.27,14.27,0,0,1-1.71-7.06,13.15,13.15,0,0,1,2.81-8.36,18.36,18.36,0,0,1,7.2-5.48,22.32,22.32,0,0,1,9-1.92,16.68,16.68,0,0,1,9.74,2.67,17.29,17.29,0,0,1,5.75,6.58,17,17,0,0,1,1.92,7.47,11.9,11.9,0,0,1-3.7,9A28.63,28.63,0,0,1,530.73,615l-1.92.68,1.78,1.92q5.2,5.63,9.46,9.73a65.24,65.24,0,0,1,8.36,10.15l1.65,2.46,2.46-2.6c2.2-2.38,4.46-5,6.79-8s4.29-5.6,5.89-8,2.4-4,2.4-4.59a4.77,4.77,0,0,0-3.83-3.84,5.83,5.83,0,0,1-1-.69c-.46-.36-.69-.63-.69-.82,0-.73.43-1.16,1.3-1.3a13.84,13.84,0,0,1,1.72-.21c.27,0,1.07.05,2.39.14s2.72.21,4.19.34,2.51.21,3.15.21a23.77,23.77,0,0,0,4.52-.48c1.65-.32,3.22-.66,4.73-1a17.29,17.29,0,0,1,3.91-.55,2.48,2.48,0,0,1,1,.41c.45.28.68.55.68.83,0,.55-.41,1.09-1.23,1.64a5.52,5.52,0,0,1-2.19,1,14,14,0,0,0-5.76,1.44,18.75,18.75,0,0,0-4.25,2.81q-.56.42-3.15,3.15t-6.24,6.51q-3.63,3.78-7.06,7.48t-8.09,8.63l2.33,3.29a57.24,57.24,0,0,0,8.64,10.08,13.91,13.91,0,0,0,9.46,3.77,27.93,27.93,0,0,0,5.55-.55,18.3,18.3,0,0,0,5.14-1.92,9.38,9.38,0,0,1,1.16-.48,3.67,3.67,0,0,1,1.17-.21,1.34,1.34,0,0,1,1.64,1.65q0,1.1-2.87,3.29a33.75,33.75,0,0,1-6.93,4,19.42,19.42,0,0,1-7.88,1.79,17.08,17.08,0,0,1-14.73-6.93q-2.82-3.49-6.38-9l-1.78-2.88-.82.82c-2.84,3.11-5.55,6-8.16,8.77a35.62,35.62,0,0,1-8.43,6.65A22.11,22.11,0,0,1,517.84,667.08Zm3.57-8.91a23.39,23.39,0,0,0,11.86-2.88,45.31,45.31,0,0,0,10.07-8.23l1.23-1.23-1.64-2.61a74.38,74.38,0,0,0-8.57-10.55q-5.13-5.34-11-11.65l-1.65-1.78-2.88,1.09q-6.3,2.48-9.39,6.24a18.63,18.63,0,0,0-4,8.09,41.25,41.25,0,0,0-.89,8.43,14.11,14.11,0,0,0,4.66,10.69Q513.86,658.16,521.41,658.17ZM527,613.48l1.78-.82A11.5,11.5,0,0,0,534.5,607a18.62,18.62,0,0,0,1.85-8,16.68,16.68,0,0,0-2.26-8.64,7.63,7.63,0,0,0-7.06-3.84,11.28,11.28,0,0,0-7.27,2.54,7.73,7.73,0,0,0-3.15,6.24,20.1,20.1,0,0,0,.55,4.93,13.72,13.72,0,0,0,2.33,4.66,70.28,70.28,0,0,0,5.35,6.31Z"/></g><g id="Camada_2" data-name="Camada 2"><rect width="1920" height="1079.06"/><text/><path class="cls-1" d="M180.49,469.73c0-37.23,23.88-62.8,58.46-62.8,30.29,0,52.52,17.84,54.83,44.95H266c-2.47-11.32-11-20.24-27-20.24-20.75,0-31,14.75-31,38.09s11.2,38.08,31.95,38.08c15.47,0,25.85-8.92,26.18-20.24H233.84V466.29h60.1c3.46,40.67-17.45,66.23-55.32,66.23C202.23,532.52,180.49,507,180.49,469.73Z"/><path class="cls-1" d="M310.91,485.85V409.68h26.34v73.09c0,16.12,6.59,26.76,22.89,26.76s23.05-10.64,23.05-26.76V409.68h26.18v76.17c0,33.63-22.06,46.67-49.23,46.67C333.14,532.52,310.91,519.48,310.91,485.85Z"/><path class="cls-1" d="M425.35,492h28.48c.33,10.29,6.42,19,18.11,19,10.54,0,17.95-4.63,17.95-13.72,0-23.33-60.1-7-60.1-54.39,0-22.82,18.11-36,46.44-36,28,0,44.29,14.07,44.29,40.15H492.86c-.33-10.3-6.26-18.87-17.62-18.87-10.21,0-17.79,5-17.79,13.55,0,23.51,61.09,6.86,61.09,54.39,0,23-18.11,36.37-47.25,36.37C442.47,532.52,425.35,518.28,425.35,492Z"/><path class="cls-1" d="M561.68,432H523.81v-22.3H625.9V432H588v97.8H561.68Z"/><path class="cls-1" d="M665.58,409.68H697.2l45.28,120.1H714.32l-9.71-27.28H658l-9.71,27.28h-28Zm32.28,71.88-16-46.66h-1l-16,46.66Z"/><path class="cls-1" d="M728.65,409.68h28.16l32.44,93.16h1.15l32.44-93.16H851l-45.29,120.1H773.94Z"/><path class="cls-1" d="M851.82,469.73c0-37.23,23.71-62.8,58.78-62.8s58.79,25.57,58.79,62.8-23.72,62.79-58.79,62.79S851.82,507,851.82,469.73Zm58.78,38.08c20.91,0,30.79-14.75,30.79-38.08s-9.88-38.09-30.79-38.09-31,14.75-31,38.09S889.69,507.81,910.6,507.81Z"/><path class="cls-1" d="M1019.77,409.68H1074c25.68,0,40.67,14.58,40.67,35.51A27.55,27.55,0,0,1,1087,473.33v1c16.13,1.54,23,10.64,24.53,26.08,1.65,16.47,2.63,24.53,4.44,29.34h-27c-1.32-3.26-3-10-4.28-25.4-1-12-5.43-15.61-16.8-15.61H1046v41h-26.19ZM1067.69,468c10.54,0,20.42-5.83,20.42-19.39,0-12.35-9.88-17.33-20.42-17.33H1046V468Z"/><path class="cls-1" d="M1135,409.68h86.12V432h-59.94v25.91h52.53v21.62h-52.53v28H1223v22.31H1135Z"/><path class="cls-1" d="M1241.9,409.68h26.35v120.1H1241.9Z"/><path class="cls-1" d="M1290,409.68h26.68l49.72,79.95-.65-79.95h25.85v120.1H1364.9l-49.72-78.41.65,78.41H1290Z"/><path class="cls-1" d="M1413.32,409.68h86.11V432H1439.5v25.91H1492v21.62H1439.5v28h61.74v22.31h-87.92Z"/><path class="cls-1" d="M1520.18,409.68h26.18v49.07h49.07V409.68h26.18v120.1h-26.18V480.71h-49.07v49.07h-26.18Z"/><path class="cls-1" d="M1643.35,409.68h54.17c25.69,0,40.67,14.58,40.67,35.51a27.55,27.55,0,0,1-27.66,28.14v1c16.13,1.54,23,10.64,24.53,26.08,1.65,16.47,2.63,24.53,4.45,29.34h-27c-1.32-3.26-3-10-4.28-25.4-1-12-5.43-15.61-16.79-15.61h-21.9v41h-26.18ZM1691.26,468c10.54,0,20.42-5.83,20.42-19.39,0-12.35-9.88-17.33-20.42-17.33h-21.73V468Z"/><path class="cls-1" d="M616.49,628.05c0-26.69,17.12-45,41.91-45,21.72,0,37.54,13.53,39.31,35.18h-20c-1.89-10.33-7.91-17.47-19.36-17.47-14.88,0-22.2,10.58-22.2,27.31s7.32,27.31,22.2,27.31c11.45,0,17.47-7.14,19.36-17.47h20c-1.77,21.65-17.59,35.18-39.31,35.18C633.61,673.07,616.49,654.74,616.49,628.05Z"/><path class="cls-1" d="M707.27,628.05c0-26.69,17-45,42.14-45s42.15,18.33,42.15,45-17,45-42.15,45S707.27,654.74,707.27,628.05Zm42.14,27.31c15,0,22.08-10.58,22.08-27.31s-7.08-27.31-22.08-27.31-22.19,10.58-22.19,27.31S734.42,655.36,749.41,655.36Z"/><path class="cls-1" d="M804.07,585h19.12l35.66,57.32L858.38,585h18.53v86.1H857.78l-35.65-56.21.47,56.21H804.07Z"/><path class="cls-1" d="M914.21,601H887.06V585h73.19v16H933.1V671.1H914.21Z"/><path class="cls-1" d="M970.4,585h61.74v16h-43v18.57h37.66v15.5H989.17v20.05h44.27v16h-63Z"/><path class="cls-1" d="M1047,585h19.13l35.65,57.32-.47-57.32h18.53v86.1h-19.12l-35.66-56.21.48,56.21H1047Z"/><path class="cls-1" d="M1157.15,601H1130V585h73.2v16H1176V671.1h-18.89Z"/><path class="cls-1" d="M1237,585h61.75v16h-43v18.57h37.66v15.5h-37.66v20.05H1300v16h-63Z"/><path class="cls-1" d="M1313.56,585h33.89c26,0,41.08,17,41.08,43,0,31.86-21.6,43.05-41.08,43.05h-33.89Zm30.58,70.6c13.11,0,25.15-6.64,25.15-27.43s-12-27.67-25.15-27.67h-11.8v55.1Z"/><path class="cls-1" d="M1401.16,585h18.89v86.1h-18.89Z"/><path class="cls-1" d="M1457.35,601H1430.2V585h73.19v16h-27.15V671.1h-18.89Z"/><path class="cls-1" d="M1509.29,628.05c0-26.69,17-45,42.15-45s42.14,18.33,42.14,45-17,45-42.14,45S1509.29,654.74,1509.29,628.05Zm42.15,27.31c15,0,22.07-10.58,22.07-27.31s-7.08-27.31-22.07-27.31-22.2,10.58-22.2,27.31S1536.44,655.36,1551.44,655.36Z"/><path class="cls-1" d="M1606.09,585h38.84c18.42,0,29.16,10.46,29.16,25.46a19.75,19.75,0,0,1-19.83,20.17v.74c11.56,1.11,16.52,7.63,17.59,18.7,1.18,11.81,1.89,17.59,3.18,21h-19.36c-.94-2.34-2.12-7.13-3.07-18.2-.71-8.61-3.89-11.2-12-11.2h-15.7v29.4h-18.77Zm34.35,41.82c7.56,0,14.64-4.18,14.64-13.9,0-8.86-7.08-12.42-14.64-12.42h-15.58v26.32Z"/><path class="cls-1" d="M209.29,665.7a8.45,8.45,0,0,1-2.47-.27,1.15,1.15,0,0,1-.82-1.23,1.66,1.66,0,0,1,1.3-1.58,21.79,21.79,0,0,1,3.63-.89c3.38-.64,5.9-1.67,7.54-3.08s3-3.82,4-7.2l18.78-61.69q1.65-4.93,0-7c-1.1-1.37-3.15-2.37-6.17-3a5.58,5.58,0,0,1-2.74-1.1,2.23,2.23,0,0,1-.69-1.64c0-.55.44-.94,1.31-1.17a11.47,11.47,0,0,1,2.94-.34q1.51,0,6.1.2t8.84.21h21.8a89.79,89.79,0,0,0,14.05-.82q4.72-.83,5.28-.83a1,1,0,0,1,.89.35,2,2,0,0,1,.2,1,4.25,4.25,0,0,1-.2,1.24c-.14.46-.3,1-.48,1.78-.46,1.56-1,3.54-1.72,6a52.74,52.74,0,0,0-1.43,6.38,6.67,6.67,0,0,1-.55,1.51,1.81,1.81,0,0,1-1.78.82,1.2,1.2,0,0,1-1.24-1,8.33,8.33,0,0,1-.27-2.12c0-1.65,0-3.2-.07-4.67a5.08,5.08,0,0,0-1.44-3.56,5.51,5.51,0,0,0-1.92-1.16,8.77,8.77,0,0,0-3.15-.48H259.05q-2.61,0-3.63,1.23a11.05,11.05,0,0,0-1.72,2.88l-1.37,4q-1.23,3.63-2.81,8.57t-3,9.59q-1.44,4.67-2.27,7.13a6.33,6.33,0,0,0-.13,2.26c.09.78.45,1.17,1.09,1.17l18.51-.41a13,13,0,0,0,9.73-5.07,19.67,19.67,0,0,1,2-2,2.94,2.94,0,0,1,1.58-.89,1.43,1.43,0,0,1,1.16.61,1.49,1.49,0,0,1,.07,1.58q-2.34,5.21-3.63,9c-.87,2.51-1.76,5.51-2.68,9a6.74,6.74,0,0,1-.68,1.64,1.25,1.25,0,0,1-1.1.69,1.63,1.63,0,0,1-1.57-1.24,5.51,5.51,0,0,1-.48-1.91q0-4-1.44-5.42a5.5,5.5,0,0,0-3.64-1.58c-1-.09-2.62-.15-4.86-.2s-4.41-.07-6.51-.07h-4.39a11.91,11.91,0,0,0-4,.62c-1.15.41-2,1.62-2.54,3.63l-7,24.4c-.92,3.11-1.23,5.46-1,7.06a4.23,4.23,0,0,0,2.54,3.36,31.34,31.34,0,0,0,5.68,1.78,8.07,8.07,0,0,1,2.75.89,1.81,1.81,0,0,1,.68,1.58q0,1-1.23,1.23a13.56,13.56,0,0,1-2.88.27,49.43,49.43,0,0,1-5.69-.27l-4.25-.48a46,46,0,0,0-4.73-.2,54.63,54.63,0,0,0-7.88.48A61.29,61.29,0,0,1,209.29,665.7Z"/><path class="cls-1" d="M286.19,666.94a5.21,5.21,0,0,1-3.84-1.51,4.44,4.44,0,0,1-1.51-3.15,8.13,8.13,0,0,1,.07-1.1,3.66,3.66,0,0,1,.34-1.1q5.63-11.37,9.46-21.45T297.57,621q.54-1.65-.69-1.65a9.81,9.81,0,0,0-2.67.76,30.53,30.53,0,0,0-4.18,2,35.18,35.18,0,0,0-3.84,2.47,1.31,1.31,0,0,1-1.37.28,1,1,0,0,1-.69-1,3.83,3.83,0,0,1,1-2A24.9,24.9,0,0,1,288,619a53.55,53.55,0,0,1,4.45-3.49q2.61-1.86,5.69-3.7a57,57,0,0,1,6.51-3.36,2.42,2.42,0,0,1,2.47.27,6.52,6.52,0,0,1,2,2.06,2.31,2.31,0,0,1,.48,1.92l-16.72,39.61a8.42,8.42,0,0,0-.76,2.13,9.21,9.21,0,0,0-.2,1.85,1.29,1.29,0,0,0,.75,1.3,3.43,3.43,0,0,0,1.44.34,7.71,7.71,0,0,0,4.39-1.85,59.86,59.86,0,0,0,5.27-4.52c1.87-1.79,3.68-3.54,5.42-5.28a.78.78,0,0,1,.55-.27.86.86,0,0,1,.54.2.59.59,0,0,1,.28.48q0,2.19-2.61,5.55a46.17,46.17,0,0,1-6.51,6.72,50.17,50.17,0,0,1-8,5.69A15.21,15.21,0,0,1,286.19,666.94Zm27.69-72.24a4.28,4.28,0,0,1-3.43-1.65,5.64,5.64,0,0,1-1.37-3.7,8.64,8.64,0,0,1,2.19-5.82,7,7,0,0,1,5.49-2.54,3.9,3.9,0,0,1,3.42,1.85,7.11,7.11,0,0,1,1.24,4,7.82,7.82,0,0,1-2.2,5.41A7,7,0,0,1,313.88,594.7Z"/><path class="cls-1" d="M321.69,666.94a6.35,6.35,0,0,1-4-1.92,5.47,5.47,0,0,1-2.2-4.11,5,5,0,0,1,.28-1.65l26-74.16a24.92,24.92,0,0,0,1-3.7,18.59,18.59,0,0,0,.34-3.56,3.08,3.08,0,0,0-1.3-2.33,7.24,7.24,0,0,0-3.22-1.51,7.13,7.13,0,0,1-2.2-.75c-.54-.32-.82-.67-.82-1a2.71,2.71,0,0,1,.07-.69A1.69,1.69,0,0,1,336,571a.57.57,0,0,1,.47-.27q2.61-.69,6.31-1.3c2.47-.41,4.77-.78,6.92-1.1a36.66,36.66,0,0,1,4.32-.48,1.59,1.59,0,0,1,1.17.48,2.18,2.18,0,0,1,.48,1.58,7.43,7.43,0,0,1-.28,1.85c-.18.68-.36,1.35-.55,2l-27.69,78.95a9.94,9.94,0,0,0-.54,2.13,12.74,12.74,0,0,0-.14,1.85c0,1.46.45,2.19,1.37,2.19,1.28,0,2.85-.71,4.73-2.12a41.49,41.49,0,0,0,5.55-5.14,58.17,58.17,0,0,0,4.39-5.35,15,15,0,0,1,1.92-2.12c.73-.69,1.27-1,1.64-1a.55.55,0,0,1,.62.48,10.63,10.63,0,0,1,.07,1.3,11.09,11.09,0,0,1-1.85,5.76,31.51,31.51,0,0,1-4.87,6,47.44,47.44,0,0,1-6.44,5.28,40.87,40.87,0,0,1-6.58,3.7A14.06,14.06,0,0,1,321.69,666.94Z"/><path class="cls-1" d="M363.5,667.35a1.58,1.58,0,0,1-1.24-.69,5.69,5.69,0,0,1-.89-1.64,5.26,5.26,0,0,1-.34-1.78,14.83,14.83,0,0,1,.89-3.29q.9-2.61,2.26-6.45l12.61-33a3.45,3.45,0,0,0,0-3,2.44,2.44,0,0,0-2.33-1.23,11,11,0,0,0-4.31,1q-2.26,1-5.56,5.35a1.42,1.42,0,0,1-1.16.48c-.41,0-.71-.39-.89-1a11,11,0,0,1,.27-2.13,13.49,13.49,0,0,1,.89-2.67,10.32,10.32,0,0,1,1.17-2.06,20.31,20.31,0,0,1,5.62-4.79,16.47,16.47,0,0,1,7.95-2.06,11.87,11.87,0,0,1,3.77.62,4.65,4.65,0,0,1,2.74,2.26c.59,1.09.53,2.6-.2,4.52L376.93,636c-.27.64-.2,1,.21,1.1a.93.93,0,0,0,1-.55,145.78,145.78,0,0,1,11.3-15.36,51.73,51.73,0,0,1,10.42-9.59q5-3.28,9.39-3.29a8,8,0,0,1,4.73,1.51,7.47,7.47,0,0,1,2.88,4.45,13.11,13.11,0,0,1-.75,7.34L411.2,636c-.27.64-.2,1,.21,1.1a.91.91,0,0,0,1-.55,108.85,108.85,0,0,1,11.31-15.7,48.75,48.75,0,0,1,10.76-9.39c3.48-2.1,6.67-3.15,9.6-3.15a7.3,7.3,0,0,1,4.66,1.64,7.86,7.86,0,0,1,2.67,4.87q.61,3.22-1.3,8l-11.79,30.43q-2.05,4.93.69,4.94a7.8,7.8,0,0,0,4-1.51,44.47,44.47,0,0,0,4.73-3.57c1.6-1.37,3-2.62,4.18-3.77s2-1.89,2.33-2.26a.36.36,0,0,1,.21-.13h.2a1,1,0,0,1,.76.34,1.19,1.19,0,0,1,.34.89,5.89,5.89,0,0,1-.48,2.26,8.69,8.69,0,0,1-2,2.67,75.7,75.7,0,0,1-10.14,9.46,19.22,19.22,0,0,1-12.06,4.39,3.74,3.74,0,0,1-2.26-.89,5.61,5.61,0,0,1-1.79-2.4,4.1,4.1,0,0,1-.07-3l15.91-41c.73-1.83.7-3.2-.07-4.12a3.94,3.94,0,0,0-2.68-1.5q-2.19-.13-5.89,2.26a37.49,37.49,0,0,0-8.22,8q-2.07,2.6-5.69,7.81t-7.41,11.17q-3.77,6-6.51,11a65.72,65.72,0,0,1-4.38,7.26,25.89,25.89,0,0,1-3.7,4.32,4.7,4.7,0,0,1-2.75,1.44,1.64,1.64,0,0,1-1.23-.62,5,5,0,0,1-.89-1.44,4.16,4.16,0,0,1-.34-1.64,17,17,0,0,1,.89-3.5c.59-1.87,1.35-4.09,2.26-6.65L409,619.24q1.23-3.16-.28-4.32a5.81,5.81,0,0,0-2.46-1.3c-1.47-.19-3.43.57-5.9,2.26a41.15,41.15,0,0,0-8.22,8.15q-1.65,1.92-4.12,5.49t-5.27,7.88c-1.88,2.88-3.7,5.8-5.49,8.77s-3.35,5.69-4.72,8.16q-3.57,6.57-5.49,9.8C365.78,666.27,364.59,667.35,363.5,667.35Z"/><path class="cls-1" d="M517.84,667.08a28.92,28.92,0,0,1-12.4-2.54,20.52,20.52,0,0,1-8.43-6.92,17.26,17.26,0,0,1-3-10q0-11,6.51-18a51.2,51.2,0,0,1,16.38-11.51l2.75-1.23-2.06-2.2c-.82-1-1.94-2.24-3.36-3.7a24.94,24.94,0,0,1-3.84-5.28,14.27,14.27,0,0,1-1.71-7.06,13.15,13.15,0,0,1,2.81-8.36,18.36,18.36,0,0,1,7.2-5.48,22.32,22.32,0,0,1,9-1.92,16.68,16.68,0,0,1,9.74,2.67,17.29,17.29,0,0,1,5.75,6.58,17,17,0,0,1,1.92,7.47,11.9,11.9,0,0,1-3.7,9A28.63,28.63,0,0,1,530.73,615l-1.92.68,1.78,1.92q5.2,5.63,9.46,9.73a65.24,65.24,0,0,1,8.36,10.15l1.65,2.46,2.46-2.6c2.2-2.38,4.46-5,6.79-8s4.29-5.6,5.89-8,2.4-4,2.4-4.59a4.77,4.77,0,0,0-3.83-3.84,5.83,5.83,0,0,1-1-.69c-.46-.36-.69-.63-.69-.82,0-.73.43-1.16,1.3-1.3a13.84,13.84,0,0,1,1.72-.21c.27,0,1.07.05,2.39.14s2.72.21,4.19.34,2.51.21,3.15.21a23.77,23.77,0,0,0,4.52-.48c1.65-.32,3.22-.66,4.73-1a17.29,17.29,0,0,1,3.91-.55,2.48,2.48,0,0,1,1,.41c.45.28.68.55.68.83,0,.55-.41,1.09-1.23,1.64a5.52,5.52,0,0,1-2.19,1,14,14,0,0,0-5.76,1.44,18.75,18.75,0,0,0-4.25,2.81q-.56.42-3.15,3.15t-6.24,6.51q-3.63,3.78-7.06,7.48t-8.09,8.63l2.33,3.29a57.24,57.24,0,0,0,8.64,10.08,13.91,13.91,0,0,0,9.46,3.77,27.93,27.93,0,0,0,5.55-.55,18.3,18.3,0,0,0,5.14-1.92,9.38,9.38,0,0,1,1.16-.48,3.67,3.67,0,0,1,1.17-.21,1.34,1.34,0,0,1,1.64,1.65q0,1.1-2.87,3.29a33.75,33.75,0,0,1-6.93,4,19.42,19.42,0,0,1-7.88,1.79,17.08,17.08,0,0,1-14.73-6.93q-2.82-3.49-6.38-9l-1.78-2.88-.82.82c-2.84,3.11-5.55,6-8.16,8.77a35.62,35.62,0,0,1-8.43,6.65A22.11,22.11,0,0,1,517.84,667.08Zm3.57-8.91a23.39,23.39,0,0,0,11.86-2.88,45.31,45.31,0,0,0,10.07-8.23l1.23-1.23-1.64-2.61a74.38,74.38,0,0,0-8.57-10.55q-5.13-5.34-11-11.65l-1.65-1.78-2.88,1.09q-6.3,2.48-9.39,6.24a18.63,18.63,0,0,0-4,8.09,41.25,41.25,0,0,0-.89,8.43,14.11,14.11,0,0,0,4.66,10.69Q513.86,658.16,521.41,658.17ZM527,613.48l1.78-.82A11.5,11.5,0,0,0,534.5,607a18.62,18.62,0,0,0,1.85-8,16.68,16.68,0,0,0-2.26-8.64,7.63,7.63,0,0,0-7.06-3.84,11.28,11.28,0,0,0-7.27,2.54,7.73,7.73,0,0,0-3.15,6.24,20.1,20.1,0,0,0,.55,4.93,13.72,13.72,0,0,0,2.33,4.66,70.28,70.28,0,0,0,5.35,6.31Z"/></g></svg>