<svg id="Camada_1" data-name="Camada 1" xmlns="http://www.w3.org/2000/svg" viewBox="0 0 1920 1080"><defs><style>.cls-1{fill:#fff;}</style></defs><rect width="1920" height="1079.06"/><text/><path class="cls-1" d="M766.64,539.79c0-69.71,44.7-117.58,109.45-117.58,56.72,0,98.34,33.41,102.66,84.17h-52.1c-4.63-21.2-20.66-37.91-50.56-37.91-38.85,0-58,27.63-58,71.32s21,71.31,59.8,71.31c29,0,48.41-16.7,49-37.9H866.53V533.36H979.06c6.47,76.14-32.68,124-103.59,124C807.33,657.36,766.64,609.5,766.64,539.79Z"/><path class="cls-1" d="M947,426.79l127.75,4.31c48.09,0,76.14,27.3,76.14,66.49,0,32.77-25.89,52.69-51.79,52.69v1.92c30.21,2.9,43.16,19.92,45.94,48.83,3.08,30.84,4.93,45.94,8.32,54.93H1102.8c-2.47-6.1-5.55-18.63-8-47.54-1.84-22.49-10.17-29.23-31.44-29.23h-41V656c-16.44-.05-58.89,1.83-75.33,1.83,20,0,97-129,26-209A108.12,108.12,0,0,0,947,426.79Zm116,113.53c19.73,0,38.23-10.92,38.23-36.3,0-23.13-18.5-32.45-38.23-32.45h-40.7v68.75Z"/></svg>